<svg width="224" height="91" viewBox="0 0 224 91" fill="none" xmlns="http://www.w3.org/2000/svg">
<path d="M2.88 31.568C3.424 31.568 3.872 31.744 4.224 32.096C4.576 32.448 4.752 32.896 4.752 33.44V42.272L8.736 46.208H15.984L20.256 41.744C20.64 41.36 21.088 41.168 21.6 41.168C22.08 41.168 22.528 41.344 22.944 41.696C23.328 42.048 23.52 42.496 23.52 43.04C23.52 43.552 23.344 44 22.992 44.384L18.144 49.424C17.984 49.616 17.776 49.76 17.52 49.856C17.296 49.952 17.056 50 16.8 50H7.92C7.44 50 6.992 49.824 6.576 49.472L1.536 44.432C1.152 44.048 0.96 43.6 0.96 43.088V33.44C0.96 32.896 1.136 32.448 1.488 32.096C1.872 31.744 2.336 31.568 2.88 31.568ZM1.824 22.64L6.576 17.6C6.928 17.216 7.376 17.024 7.92 17.024H16.8C17.056 17.024 17.296 17.072 17.52 17.168C17.776 17.264 17.984 17.408 18.144 17.6L23.088 22.64C23.44 22.992 23.616 23.44 23.616 23.984C23.616 24.496 23.424 24.944 23.04 25.328C22.624 25.68 22.176 25.856 21.696 25.856C21.184 25.856 20.736 25.664 20.352 25.28L15.984 20.816H8.784L4.608 25.28C4.224 25.664 3.76 25.856 3.216 25.856C2.704 25.856 2.272 25.68 1.92 25.328C1.536 24.976 1.328 24.544 1.296 24.032C1.296 23.488 1.472 23.024 1.824 22.64ZM2.88 26.816C3.424 26.816 3.872 26.992 4.224 27.344C4.608 27.696 4.8 28.144 4.8 28.688C4.8 29.232 4.608 29.696 4.224 30.08C3.872 30.432 3.424 30.608 2.88 30.608C2.336 30.608 1.872 30.432 1.488 30.08C1.136 29.696 0.96 29.232 0.96 28.688C0.96 28.144 1.136 27.696 1.488 27.344C1.872 26.992 2.336 26.816 2.88 26.816ZM27.4894 21.824C28.0334 21.824 28.4814 22.016 28.8334 22.4C29.2174 22.752 29.4094 23.2 29.4094 23.744V48.272C29.4094 48.816 29.2174 49.28 28.8334 49.664C28.4814 50.016 28.0334 50.192 27.4894 50.192C26.9454 50.192 26.4814 50.016 26.0974 49.664C25.7454 49.28 25.5694 48.816 25.5694 48.272V23.744C25.5694 23.2 25.7454 22.752 26.0974 22.4C26.4814 22.016 26.9454 21.824 27.4894 21.824ZM27.4894 17.168C28.0334 17.168 28.4814 17.36 28.8334 17.744C29.2174 18.096 29.4094 18.544 29.4094 19.088C29.4094 19.632 29.2174 20.096 28.8334 20.48C28.4814 20.832 28.0334 21.008 27.4894 21.008C26.9454 21.008 26.4814 20.832 26.0974 20.48C25.7454 20.096 25.5694 19.632 25.5694 19.088C25.5694 18.544 25.7454 18.096 26.0974 17.744C26.4814 17.36 26.9454 17.168 27.4894 17.168ZM31.335 43.232V19.088C31.335 18.544 31.511 18.096 31.863 17.744C32.247 17.36 32.711 17.168 33.255 17.168H44.871C46.183 17.168 47.383 17.504 48.471 18.176C49.559 18.848 50.407 19.776 51.015 20.96C51.623 22.112 51.863 23.344 51.735 24.656C51.639 25.936 51.207 27.104 50.439 28.16L41.079 41.12C40.695 41.664 40.183 41.936 39.543 41.936C39.159 41.936 38.791 41.808 38.439 41.552C37.991 41.232 37.719 40.816 37.623 40.304C37.559 39.792 37.687 39.328 38.007 38.912L47.367 25.904C48.135 24.88 48.215 23.808 47.607 22.688C47.351 22.144 46.983 21.728 46.503 21.44C46.023 21.12 45.479 20.96 44.871 20.96H35.127V43.232C35.127 43.776 34.951 44.24 34.599 44.624C34.247 44.976 33.799 45.152 33.255 45.152C32.711 45.152 32.247 44.976 31.863 44.624C31.511 44.24 31.335 43.776 31.335 43.232ZM31.335 48.272C31.335 47.728 31.511 47.28 31.863 46.928C32.247 46.544 32.711 46.352 33.255 46.352C33.799 46.352 34.247 46.544 34.599 46.928C34.983 47.28 35.175 47.728 35.175 48.272C35.175 48.816 34.983 49.28 34.599 49.664C34.247 50.016 33.799 50.192 33.255 50.192C32.711 50.192 32.247 50.016 31.863 49.664C31.511 49.28 31.335 48.816 31.335 48.272ZM70.4464 19.088C70.4464 18.544 70.6224 18.096 70.9744 17.744C71.3584 17.36 71.8224 17.168 72.3664 17.168C72.9104 17.168 73.3584 17.36 73.7104 17.744C74.0624 18.096 74.2384 18.544 74.2384 19.088V48.272C74.2384 48.816 74.0624 49.28 73.7104 49.664C73.3584 50.016 72.9104 50.192 72.3664 50.192C71.8224 50.192 71.3584 50.016 70.9744 49.664C70.6224 49.28 70.4464 48.816 70.4464 48.272V19.088ZM53.6944 43.664V19.088C53.6944 18.544 53.8704 18.096 54.2224 17.744C54.6064 17.36 55.0544 17.168 55.5664 17.168C56.1104 17.168 56.5584 17.36 56.9104 17.744C57.2944 18.096 57.4864 18.544 57.4864 19.088V43.664C57.4864 44.176 57.2944 44.624 56.9104 45.008C56.5584 45.36 56.1104 45.536 55.5664 45.536C55.0544 45.536 54.6064 45.36 54.2224 45.008C53.8704 44.624 53.6944 44.176 53.6944 43.664ZM60.2704 36.656H67.7104C68.2544 36.656 68.7024 36.832 69.0544 37.184C69.4064 37.536 69.5824 37.984 69.5824 38.528C69.5824 39.072 69.4064 39.536 69.0544 39.92C68.7024 40.272 68.2544 40.448 67.7104 40.448H60.2704C59.7264 40.448 59.2624 40.272 58.8784 39.92C58.5264 39.536 58.3504 39.072 58.3504 38.528C58.3504 37.984 58.5264 37.536 58.8784 37.184C59.2624 36.832 59.7264 36.656 60.2704 36.656ZM55.5664 46.4C56.1104 46.4 56.5584 46.576 56.9104 46.928C57.2944 47.28 57.4864 47.728 57.4864 48.272C57.4864 48.816 57.2944 49.28 56.9104 49.664C56.5584 50.016 56.1104 50.192 55.5664 50.192C55.0224 50.192 54.5744 50.016 54.2224 49.664C53.8704 49.28 53.6944 48.816 53.6944 48.272C53.6944 47.728 53.8704 47.28 54.2224 46.928C54.5744 46.576 55.0224 46.4 55.5664 46.4ZM76.1955 43.664V19.088C76.1955 18.544 76.3715 18.096 76.7235 17.744C77.0755 17.36 77.5235 17.168 78.0675 17.168C78.6115 17.168 79.0595 17.36 79.4115 17.744C79.7955 18.096 79.9875 18.544 79.9875 19.088V43.664C79.9875 44.176 79.7955 44.624 79.4115 45.008C79.0595 45.36 78.6115 45.536 78.0675 45.536C77.5235 45.536 77.0755 45.36 76.7235 45.008C76.3715 44.624 76.1955 44.176 76.1955 43.664ZM83.9715 17.168H94.7715C95.3155 17.168 95.7635 17.36 96.1155 17.744C96.4995 18.096 96.6915 18.544 96.6915 19.088C96.6915 19.632 96.4995 20.08 96.1155 20.432C95.7635 20.784 95.3155 20.96 94.7715 20.96H83.9715C83.4275 20.96 82.9795 20.784 82.6275 20.432C82.2755 20.08 82.0995 19.632 82.0995 19.088C82.0995 18.544 82.2755 18.096 82.6275 17.744C82.9795 17.36 83.4275 17.168 83.9715 17.168ZM82.0995 48.272C82.0995 47.728 82.2755 47.28 82.6275 46.928C82.9795 46.576 83.4275 46.4 83.9715 46.4H94.7715C95.3155 46.4 95.7635 46.576 96.1155 46.928C96.4995 47.28 96.6915 47.728 96.6915 48.272C96.6915 48.816 96.4995 49.28 96.1155 49.664C95.7635 50.016 95.3155 50.192 94.7715 50.192H83.9715C83.4275 50.192 82.9795 50.016 82.6275 49.664C82.2755 49.28 82.0995 48.816 82.0995 48.272ZM82.0995 38.528C82.0995 37.984 82.2755 37.536 82.6275 37.184C82.9795 36.832 83.4275 36.656 83.9715 36.656H91.4115C91.9555 36.656 92.4035 36.832 92.7555 37.184C93.1395 37.536 93.3315 37.984 93.3315 38.528C93.3315 39.072 93.1395 39.536 92.7555 39.92C92.4035 40.272 91.9555 40.448 91.4115 40.448H83.9715C83.4275 40.448 82.9795 40.272 82.6275 39.92C82.2755 39.536 82.0995 39.072 82.0995 38.528ZM78.0675 46.4C78.6115 46.4 79.0595 46.576 79.4115 46.928C79.7955 47.28 79.9875 47.728 79.9875 48.272C79.9875 48.816 79.7955 49.28 79.4115 49.664C79.0595 50.016 78.6115 50.192 78.0675 50.192C77.5235 50.192 77.0595 50.016 76.6755 49.664C76.3235 49.28 76.1475 48.816 76.1475 48.272C76.1475 47.728 76.3235 47.28 76.6755 46.928C77.0595 46.576 77.5235 46.4 78.0675 46.4ZM100.521 17.168H111.945C113.289 17.168 114.505 17.52 115.593 18.224C116.713 18.896 117.561 19.84 118.137 21.056C118.713 22.24 118.937 23.488 118.809 24.8C118.681 26.08 118.201 27.248 117.369 28.304L108.297 39.728C108.137 39.984 107.913 40.176 107.625 40.304C107.369 40.4 107.113 40.448 106.857 40.448C106.409 40.448 106.009 40.304 105.657 40.016C105.241 39.696 105.001 39.28 104.937 38.768C104.873 38.256 105.001 37.792 105.321 37.376L114.345 25.952C115.145 24.928 115.273 23.84 114.729 22.688C114.473 22.144 114.089 21.728 113.577 21.44C113.097 21.12 112.553 20.96 111.945 20.96H102.441V43.664C102.441 44.176 102.249 44.624 101.865 45.008C101.513 45.36 101.065 45.536 100.521 45.536C99.9766 45.536 99.5286 45.36 99.1766 45.008C98.8246 44.624 98.6486 44.176 98.6486 43.664V19.088C98.6486 18.544 98.8246 18.096 99.1766 17.744C99.5286 17.36 99.9766 17.168 100.521 17.168ZM108.729 40.88C109.113 40.464 109.593 40.256 110.169 40.256C110.681 40.256 111.097 40.416 111.417 40.736L118.185 46.88C118.601 47.232 118.809 47.664 118.809 48.176C118.841 48.688 118.681 49.152 118.329 49.568C117.913 49.984 117.449 50.192 116.937 50.192C116.489 50.192 116.057 50.032 115.641 49.712L108.873 43.568C108.489 43.216 108.281 42.784 108.249 42.272C108.217 41.728 108.377 41.264 108.729 40.88ZM100.521 46.4C101.065 46.4 101.513 46.576 101.865 46.928C102.249 47.28 102.441 47.728 102.441 48.272C102.441 48.816 102.249 49.28 101.865 49.664C101.513 50.016 101.065 50.192 100.521 50.192C99.9766 50.192 99.5126 50.016 99.1286 49.664C98.7766 49.28 98.6006 48.816 98.6006 48.272C98.6006 47.728 98.7766 47.28 99.1286 46.928C99.5126 46.576 99.9766 46.4 100.521 46.4ZM135.113 17.024C135.657 17.024 136.105 17.2 136.457 17.552C136.841 17.904 137.033 18.352 137.033 18.896V42.272L140.201 45.392L143.033 42.32V18.896C143.033 18.352 143.209 17.904 143.561 17.552C143.945 17.2 144.409 17.024 144.953 17.024C145.497 17.024 145.945 17.2 146.297 17.552C146.681 17.904 146.873 18.352 146.873 18.896V43.088C146.873 43.568 146.697 43.984 146.345 44.336L141.689 49.424C141.305 49.808 140.857 50 140.345 50H140.297C139.817 50 139.369 49.824 138.953 49.472L133.769 44.432C133.417 44.08 133.241 43.632 133.241 43.088V18.896C133.241 18.352 133.417 17.904 133.769 17.552C134.121 17.2 134.569 17.024 135.113 17.024ZM150.137 44.48L153.065 42.176V18.896C153.065 18.352 153.241 17.904 153.593 17.552C153.977 17.2 154.441 17.024 154.985 17.024C155.529 17.024 155.977 17.2 156.329 17.552C156.681 17.904 156.857 18.352 156.857 18.896V43.088C156.857 43.696 156.617 44.192 156.137 44.576L152.537 47.456C152.217 47.744 151.817 47.888 151.337 47.888C150.761 47.888 150.265 47.648 149.849 47.168C149.529 46.752 149.385 46.288 149.417 45.776C149.481 45.264 149.721 44.832 150.137 44.48ZM147.065 46.16C147.609 46.16 148.057 46.352 148.409 46.736C148.793 47.088 148.985 47.536 148.985 48.08C148.985 48.624 148.793 49.088 148.409 49.472C148.057 49.824 147.609 50 147.065 50C146.521 50 146.073 49.824 145.721 49.472C145.369 49.088 145.193 48.624 145.193 48.08C145.193 47.536 145.369 47.088 145.721 46.736C146.073 46.352 146.521 46.16 147.065 46.16ZM158.932 42.56L168.052 18.416C168.18 18.032 168.404 17.728 168.724 17.504C169.044 17.28 169.412 17.168 169.828 17.168C170.212 17.168 170.564 17.28 170.884 17.504C171.204 17.728 171.444 18.032 171.604 18.416L180.82 42.56C180.884 42.816 180.916 43.04 180.916 43.232V48.272C180.916 48.816 180.724 49.28 180.34 49.664C179.988 50.016 179.556 50.192 179.044 50.192C178.5 50.192 178.036 50.016 177.652 49.664C177.3 49.28 177.124 48.816 177.124 48.272V43.568L169.828 24.464L162.484 43.904C162.324 44.384 162.004 44.736 161.524 44.96C161.044 45.184 160.548 45.2 160.036 45.008C159.556 44.816 159.204 44.496 158.98 44.048C158.788 43.568 158.772 43.072 158.932 42.56ZM165.94 38.528C165.94 37.984 166.116 37.536 166.468 37.184C166.852 36.832 167.316 36.656 167.86 36.656H171.46C172.004 36.656 172.452 36.832 172.804 37.184C173.188 37.536 173.38 37.984 173.38 38.528C173.38 39.072 173.188 39.536 172.804 39.92C172.452 40.272 172.004 40.448 171.46 40.448H167.86C167.316 40.448 166.852 40.272 166.468 39.92C166.116 39.536 165.94 39.072 165.94 38.528ZM158.836 48.272C158.836 47.728 159.012 47.28 159.364 46.928C159.748 46.544 160.212 46.352 160.756 46.352C161.3 46.352 161.748 46.544 162.1 46.928C162.452 47.28 162.628 47.728 162.628 48.272C162.628 48.816 162.452 49.28 162.1 49.664C161.748 50.016 161.3 50.192 160.756 50.192C160.212 50.192 159.748 50.016 159.364 49.664C159.012 49.28 158.836 48.816 158.836 48.272ZM178.617 22.352C179.129 22.16 179.625 22.176 180.105 22.4C180.585 22.592 180.921 22.944 181.113 23.456L188.601 42.944L195.849 23.792V19.088C195.849 18.544 196.025 18.096 196.377 17.744C196.761 17.36 197.209 17.168 197.721 17.168C198.265 17.168 198.713 17.36 199.065 17.744C199.449 18.096 199.641 18.544 199.641 19.088V24.128C199.641 24.32 199.593 24.544 199.497 24.8L190.425 48.944C190.265 49.328 190.025 49.632 189.705 49.856C189.385 50.08 189.033 50.192 188.649 50.192C188.233 50.192 187.865 50.08 187.545 49.856C187.225 49.632 187.001 49.328 186.873 48.944L177.561 24.8C177.369 24.32 177.369 23.84 177.561 23.36C177.785 22.88 178.137 22.544 178.617 22.352ZM178.521 17.168C179.065 17.168 179.513 17.36 179.865 17.744C180.217 18.096 180.393 18.544 180.393 19.088C180.393 19.632 180.217 20.096 179.865 20.48C179.513 20.832 179.065 21.008 178.521 21.008C177.977 21.008 177.513 20.832 177.129 20.48C176.777 20.096 176.601 19.632 176.601 19.088C176.601 18.544 176.777 18.096 177.129 17.744C177.513 17.36 177.977 17.168 178.521 17.168ZM201.586 43.664V19.088C201.586 18.544 201.762 18.096 202.114 17.744C202.466 17.36 202.914 17.168 203.458 17.168C204.002 17.168 204.45 17.36 204.802 17.744C205.186 18.096 205.378 18.544 205.378 19.088V43.664C205.378 44.176 205.186 44.624 204.802 45.008C204.45 45.36 204.002 45.536 203.458 45.536C202.914 45.536 202.466 45.36 202.114 45.008C201.762 44.624 201.586 44.176 201.586 43.664ZM209.362 17.168H220.162C220.706 17.168 221.154 17.36 221.506 17.744C221.89 18.096 222.082 18.544 222.082 19.088C222.082 19.632 221.89 20.08 221.506 20.432C221.154 20.784 220.706 20.96 220.162 20.96H209.362C208.818 20.96 208.37 20.784 208.018 20.432C207.666 20.08 207.49 19.632 207.49 19.088C207.49 18.544 207.666 18.096 208.018 17.744C208.37 17.36 208.818 17.168 209.362 17.168ZM207.49 48.272C207.49 47.728 207.666 47.28 208.018 46.928C208.37 46.576 208.818 46.4 209.362 46.4H220.162C220.706 46.4 221.154 46.576 221.506 46.928C221.89 47.28 222.082 47.728 222.082 48.272C222.082 48.816 221.89 49.28 221.506 49.664C221.154 50.016 220.706 50.192 220.162 50.192H209.362C208.818 50.192 208.37 50.016 208.018 49.664C207.666 49.28 207.49 48.816 207.49 48.272ZM207.49 38.528C207.49 37.984 207.666 37.536 208.018 37.184C208.37 36.832 208.818 36.656 209.362 36.656H216.802C217.346 36.656 217.794 36.832 218.146 37.184C218.53 37.536 218.722 37.984 218.722 38.528C218.722 39.072 218.53 39.536 218.146 39.92C217.794 40.272 217.346 40.448 216.802 40.448H209.362C208.818 40.448 208.37 40.272 208.018 39.92C207.666 39.536 207.49 39.072 207.49 38.528ZM203.458 46.4C204.002 46.4 204.45 46.576 204.802 46.928C205.186 47.28 205.378 47.728 205.378 48.272C205.378 48.816 205.186 49.28 204.802 49.664C204.45 50.016 204.002 50.192 203.458 50.192C202.914 50.192 202.45 50.016 202.066 49.664C201.714 49.28 201.538 48.816 201.538 48.272C201.538 47.728 201.714 47.28 202.066 46.928C202.45 46.576 202.914 46.4 203.458 46.4Z" fill="#4AF626"/>
<path d="M34.96 69.28C35.1333 69.2267 35.3 69.2333 35.46 69.3C35.62 69.3667 35.7533 69.4733 35.86 69.62L39.14 74.6C39.26 74.7867 39.2933 74.9867 39.24 75.2C39.2 75.4133 39.0867 75.58 38.9 75.7C38.7667 75.78 38.6267 75.82 38.48 75.82C38.1867 75.82 37.96 75.7 37.8 75.46L35.98 72.7V82.22C35.98 82.4467 35.9067 82.6333 35.76 82.78C35.6133 82.9267 35.4267 83 35.2 83C34.9733 83 34.78 82.9267 34.62 82.78C34.4733 82.6333 34.4 82.4467 34.4 82.22V70.04C34.4 69.8667 34.4533 69.7133 34.56 69.58C34.6667 69.4333 34.8 69.3333 34.96 69.28ZM40.26 74.6L43.54 69.62C43.6467 69.4733 43.78 69.3667 43.94 69.3C44.1 69.2333 44.26 69.2267 44.42 69.28C44.5933 69.3333 44.7333 69.4333 44.84 69.58C44.9467 69.7133 45 69.8667 45 70.04V82.22C45 82.4467 44.92 82.6333 44.76 82.78C44.6133 82.9267 44.4267 83 44.2 83C43.9733 83 43.7867 82.9267 43.64 82.78C43.4933 82.6333 43.42 82.4467 43.42 82.22V72.7L41.58 75.46C41.42 75.7 41.2 75.82 40.92 75.82C40.7867 75.82 40.6467 75.78 40.5 75.7C40.3133 75.58 40.1933 75.4133 40.14 75.2C40.1 74.9867 40.14 74.7867 40.26 74.6ZM39.7 75.78C39.9267 75.78 40.1133 75.86 40.26 76.02C40.42 76.1667 40.5 76.3533 40.5 76.58C40.5 76.8067 40.42 76.9933 40.26 77.14C40.1133 77.2867 39.9267 77.36 39.7 77.36C39.4733 77.36 39.28 77.2867 39.12 77.14C38.9733 76.9933 38.9 76.8067 38.9 76.58C38.9 76.3533 38.9733 76.1667 39.12 76.02C39.28 75.86 39.4733 75.78 39.7 75.78ZM45.8063 76.2C45.8063 75.2533 45.9863 74.36 46.3463 73.52C46.7063 72.68 47.1929 71.9533 47.8063 71.34C48.4329 70.7133 49.1663 70.22 50.0063 69.86C50.8463 69.5 51.7396 69.32 52.6863 69.32C53.6329 69.32 54.5263 69.5 55.3663 69.86C56.2063 70.22 56.9329 70.7133 57.5463 71.34C58.1729 71.9533 58.6663 72.68 59.0263 73.52C59.3863 74.36 59.5663 75.2533 59.5663 76.2C59.5663 77.1467 59.3863 78.04 59.0263 78.88C58.6663 79.72 58.1729 80.4533 57.5463 81.08C56.9329 81.6933 56.2063 82.18 55.3663 82.54C54.5263 82.9 53.6329 83.08 52.6863 83.08C51.7396 83.08 50.8463 82.9 50.0063 82.54C49.1663 82.18 48.4329 81.6933 47.8063 81.08C47.1929 80.4533 46.7063 79.72 46.3463 78.88C45.9863 78.04 45.8063 77.1467 45.8063 76.2ZM47.3863 76.2C47.3863 76.9333 47.5263 77.62 47.8063 78.26C48.0863 78.9 48.4663 79.46 48.9463 79.94C49.4263 80.42 49.9863 80.8 50.6263 81.08C51.2663 81.36 51.9529 81.5 52.6863 81.5C53.4196 81.5 54.1063 81.36 54.7463 81.08C55.3863 80.8 55.9463 80.42 56.4262 79.94C56.9063 79.46 57.2863 78.9 57.5663 78.26C57.8463 77.62 57.9863 76.9333 57.9863 76.2C57.9863 75.4667 57.8463 74.78 57.5663 74.14C57.2863 73.5 56.9063 72.94 56.4262 72.46C55.9463 71.98 55.3863 71.6 54.7463 71.32C54.1063 71.04 53.4196 70.9 52.6863 70.9C51.9529 70.9 51.2663 71.04 50.6263 71.32C49.9863 71.6 49.4263 71.98 48.9463 72.46C48.4663 72.94 48.0863 73.5 47.8063 74.14C47.5263 74.78 47.3863 75.4667 47.3863 76.2ZM51.8863 76.2C51.8863 75.9733 51.9596 75.7867 52.1063 75.64C52.2663 75.48 52.4596 75.4 52.6863 75.4C52.9129 75.4 53.0996 75.48 53.2463 75.64C53.4063 75.7867 53.4863 75.9733 53.4863 76.2C53.4863 76.4267 53.4063 76.62 53.2463 76.78C53.0996 76.9267 52.9129 77 52.6863 77C52.4596 77 52.2663 76.9267 52.1063 76.78C51.9596 76.62 51.8863 76.4267 51.8863 76.2ZM61.157 69.32H65.917C66.477 69.32 66.9837 69.4667 67.437 69.76C67.9037 70.04 68.257 70.4333 68.497 70.94C68.737 71.4333 68.8304 71.9533 68.777 72.5C68.7237 73.0333 68.5237 73.52 68.177 73.96L64.397 78.72C64.3304 78.8267 64.237 78.9067 64.117 78.96C64.0104 79 63.9037 79.02 63.797 79.02C63.6104 79.02 63.4437 78.96 63.297 78.84C63.1237 78.7067 63.0237 78.5333 62.997 78.32C62.9704 78.1067 63.0237 77.9133 63.157 77.74L66.917 72.98C67.2504 72.5533 67.3037 72.1 67.077 71.62C66.9704 71.3933 66.8104 71.22 66.597 71.1C66.397 70.9667 66.1704 70.9 65.917 70.9H61.957V80.36C61.957 80.5733 61.877 80.76 61.717 80.92C61.5704 81.0667 61.3837 81.14 61.157 81.14C60.9304 81.14 60.7437 81.0667 60.597 80.92C60.4504 80.76 60.377 80.5733 60.377 80.36V70.12C60.377 69.8933 60.4504 69.7067 60.597 69.56C60.7437 69.4 60.9304 69.32 61.157 69.32ZM64.577 79.2C64.737 79.0267 64.937 78.94 65.177 78.94C65.3904 78.94 65.5637 79.0067 65.697 79.14L68.517 81.7C68.6904 81.8467 68.777 82.0267 68.777 82.24C68.7904 82.4533 68.7237 82.6467 68.577 82.82C68.4037 82.9933 68.2104 83.08 67.997 83.08C67.8104 83.08 67.6304 83.0133 67.457 82.88L64.637 80.32C64.477 80.1733 64.3904 79.9933 64.377 79.78C64.3637 79.5533 64.4304 79.36 64.577 79.2ZM61.157 81.5C61.3837 81.5 61.5704 81.5733 61.717 81.72C61.877 81.8667 61.957 82.0533 61.957 82.28C61.957 82.5067 61.877 82.7 61.717 82.86C61.5704 83.0067 61.3837 83.08 61.157 83.08C60.9304 83.08 60.737 83.0067 60.577 82.86C60.4304 82.7 60.357 82.5067 60.357 82.28C60.357 82.0533 60.4304 81.8667 60.577 81.72C60.737 81.5733 60.9304 81.5 61.157 81.5ZM70.6953 69.32H76.4753C76.7686 69.32 76.9886 69.4467 77.1353 69.7L78.4353 71.8C78.5286 71.9333 78.5686 72.08 78.5553 72.24C78.5553 72.3867 78.5153 72.5267 78.4353 72.66L77.1153 74.6C76.942 74.84 76.722 74.96 76.4553 74.96C76.322 74.96 76.1753 74.9133 76.0153 74.82C75.8286 74.6867 75.7153 74.52 75.6753 74.32C75.6353 74.1067 75.682 73.9067 75.8153 73.72L76.8353 72.2L76.0153 70.9H71.4953V74.28L75.3753 76.54C75.562 76.6467 75.682 76.8067 75.7353 77.02C75.7886 77.2333 75.762 77.4333 75.6553 77.62C75.5086 77.8867 75.282 78.02 74.9753 78.02C74.842 78.02 74.7086 77.9867 74.5753 77.92L70.2953 75.42C70.0286 75.26 69.8953 75.0333 69.8953 74.74V70.12C69.8953 69.8933 69.9686 69.7067 70.1153 69.56C70.2753 69.4 70.4686 69.32 70.6953 69.32ZM70.2153 79.54C70.362 79.4333 70.522 79.38 70.6953 79.38C70.9486 79.38 71.162 79.4867 71.3353 79.7L72.6553 81.5H76.2553V78.44C76.2553 78.2133 76.3286 78.0267 76.4753 77.88C76.622 77.72 76.8086 77.64 77.0353 77.64C77.262 77.64 77.4486 77.72 77.5953 77.88C77.7553 78.0267 77.8353 78.2133 77.8353 78.44V82.28C77.8353 82.5067 77.7553 82.7 77.5953 82.86C77.4486 83.0067 77.262 83.08 77.0353 83.08H72.2553C71.9886 83.08 71.782 82.9733 71.6353 82.76L70.0553 80.66C69.922 80.4733 69.8686 80.2733 69.8953 80.06C69.9353 79.8467 70.042 79.6733 70.2153 79.54ZM70.3753 77.42C70.602 77.42 70.7886 77.5 70.9353 77.66C71.0953 77.8067 71.1753 77.9933 71.1753 78.22C71.1753 78.4467 71.0953 78.64 70.9353 78.8C70.7886 78.9467 70.602 79.02 70.3753 79.02C70.1486 79.02 69.962 78.9467 69.8153 78.8C69.6686 78.64 69.5953 78.4467 69.5953 78.22C69.5953 77.9933 69.6686 77.8067 69.8153 77.66C69.962 77.5 70.1486 77.42 70.3753 77.42ZM79.4005 80.36V70.12C79.4005 69.8933 79.4738 69.7067 79.6205 69.56C79.7671 69.4 79.9538 69.32 80.1805 69.32C80.4071 69.32 80.5938 69.4 80.7405 69.56C80.9005 69.7067 80.9805 69.8933 80.9805 70.12V80.36C80.9805 80.5733 80.9005 80.76 80.7405 80.92C80.5938 81.0667 80.4071 81.14 80.1805 81.14C79.9538 81.14 79.7671 81.0667 79.6205 80.92C79.4738 80.76 79.4005 80.5733 79.4005 80.36ZM82.6405 69.32H87.1405C87.3671 69.32 87.5538 69.4 87.7005 69.56C87.8605 69.7067 87.9405 69.8933 87.9405 70.12C87.9405 70.3467 87.8605 70.5333 87.7005 70.68C87.5538 70.8267 87.3671 70.9 87.1405 70.9H82.6405C82.4138 70.9 82.2271 70.8267 82.0805 70.68C81.9338 70.5333 81.8605 70.3467 81.8605 70.12C81.8605 69.8933 81.9338 69.7067 82.0805 69.56C82.2271 69.4 82.4138 69.32 82.6405 69.32ZM81.8605 82.28C81.8605 82.0533 81.9338 81.8667 82.0805 81.72C82.2271 81.5733 82.4138 81.5 82.6405 81.5H87.1405C87.3671 81.5 87.5538 81.5733 87.7005 81.72C87.8605 81.8667 87.9405 82.0533 87.9405 82.28C87.9405 82.5067 87.8605 82.7 87.7005 82.86C87.5538 83.0067 87.3671 83.08 87.1405 83.08H82.6405C82.4138 83.08 82.2271 83.0067 82.0805 82.86C81.9338 82.7 81.8605 82.5067 81.8605 82.28ZM81.8605 78.22C81.8605 77.9933 81.9338 77.8067 82.0805 77.66C82.2271 77.5133 82.4138 77.44 82.6405 77.44H85.7405C85.9671 77.44 86.1538 77.5133 86.3005 77.66C86.4605 77.8067 86.5405 77.9933 86.5405 78.22C86.5405 78.4467 86.4605 78.64 86.3005 78.8C86.1538 78.9467 85.9671 79.02 85.7405 79.02H82.6405C82.4138 79.02 82.2271 78.9467 82.0805 78.8C81.9338 78.64 81.8605 78.4467 81.8605 78.22ZM80.1805 81.5C80.4071 81.5 80.5938 81.5733 80.7405 81.72C80.9005 81.8667 80.9805 82.0533 80.9805 82.28C80.9805 82.5067 80.9005 82.7 80.7405 82.86C80.5938 83.0067 80.4071 83.08 80.1805 83.08C79.9538 83.08 79.7605 83.0067 79.6005 82.86C79.4538 82.7 79.3805 82.5067 79.3805 82.28C79.3805 82.0533 79.4538 81.8667 79.6005 81.72C79.7605 81.5733 79.9538 81.5 80.1805 81.5ZM93.9313 80.18V70.12C93.9313 69.8933 94.0046 69.7067 94.1513 69.56C94.3113 69.4 94.5046 69.32 94.7313 69.32H99.5713C100.118 69.32 100.618 69.46 101.071 69.74C101.525 70.02 101.878 70.4067 102.131 70.9C102.385 71.38 102.485 71.8933 102.431 72.44C102.391 72.9733 102.211 73.46 101.891 73.9L97.9913 79.3C97.8313 79.5267 97.6179 79.64 97.3513 79.64C97.1913 79.64 97.0379 79.5867 96.8913 79.48C96.7046 79.3467 96.5913 79.1733 96.5513 78.96C96.5246 78.7467 96.5779 78.5533 96.7113 78.38L100.611 72.96C100.931 72.5333 100.965 72.0867 100.711 71.62C100.605 71.3933 100.451 71.22 100.251 71.1C100.051 70.9667 99.8246 70.9 99.5713 70.9H95.5113V80.18C95.5113 80.4067 95.4379 80.6 95.2913 80.76C95.1446 80.9067 94.9579 80.98 94.7313 80.98C94.5046 80.98 94.3113 80.9067 94.1513 80.76C94.0046 80.6 93.9313 80.4067 93.9313 80.18ZM93.9313 82.28C93.9313 82.0533 94.0046 81.8667 94.1513 81.72C94.3113 81.56 94.5046 81.48 94.7313 81.48C94.9579 81.48 95.1446 81.56 95.2913 81.72C95.4513 81.8667 95.5313 82.0533 95.5313 82.28C95.5313 82.5067 95.4513 82.7 95.2913 82.86C95.1446 83.0067 94.9579 83.08 94.7313 83.08C94.5046 83.08 94.3113 83.0067 94.1513 82.86C94.0046 82.7 93.9313 82.5067 93.9313 82.28ZM103.268 82.28V72.22C103.268 71.9933 103.341 71.8067 103.488 71.66C103.634 71.5 103.821 71.42 104.048 71.42C104.274 71.42 104.461 71.5 104.608 71.66C104.768 71.8067 104.848 71.9933 104.848 72.22V82.28C104.848 82.5067 104.768 82.7 104.608 82.86C104.461 83.0067 104.274 83.08 104.048 83.08C103.821 83.08 103.634 83.0067 103.488 82.86C103.341 82.7 103.268 82.5067 103.268 82.28ZM106.108 81.5H111.008C111.234 81.5 111.421 81.5733 111.568 81.72C111.728 81.8667 111.808 82.0533 111.808 82.28C111.808 82.5067 111.728 82.7 111.568 82.86C111.421 83.0067 111.234 83.08 111.008 83.08H106.108C105.881 83.08 105.688 83.0067 105.528 82.86C105.381 82.7 105.308 82.5067 105.308 82.28C105.308 82.0533 105.381 81.8667 105.528 81.72C105.688 81.5733 105.881 81.5 106.108 81.5ZM103.248 70.12C103.248 69.8933 103.321 69.7067 103.468 69.56C103.628 69.4 103.821 69.32 104.048 69.32C104.274 69.32 104.461 69.4 104.608 69.56C104.768 69.7067 104.848 69.8933 104.848 70.12C104.848 70.3467 104.768 70.54 104.608 70.7C104.461 70.8467 104.274 70.92 104.048 70.92C103.821 70.92 103.628 70.8467 103.468 70.7C103.321 70.54 103.248 70.3467 103.248 70.12ZM112.663 79.9L116.463 69.84C116.516 69.68 116.61 69.5533 116.743 69.46C116.876 69.3667 117.03 69.32 117.203 69.32C117.363 69.32 117.51 69.3667 117.643 69.46C117.776 69.5533 117.876 69.68 117.943 69.84L121.783 79.9C121.81 80.0067 121.823 80.1 121.823 80.18V82.28C121.823 82.5067 121.743 82.7 121.583 82.86C121.436 83.0067 121.256 83.08 121.043 83.08C120.816 83.08 120.623 83.0067 120.463 82.86C120.316 82.7 120.243 82.5067 120.243 82.28V80.32L117.203 72.36L114.143 80.46C114.076 80.66 113.943 80.8067 113.743 80.9C113.543 80.9933 113.336 81 113.123 80.92C112.923 80.84 112.776 80.7067 112.683 80.52C112.603 80.32 112.596 80.1133 112.663 79.9ZM115.583 78.22C115.583 77.9933 115.656 77.8067 115.803 77.66C115.963 77.5133 116.156 77.44 116.383 77.44H117.883C118.11 77.44 118.296 77.5133 118.443 77.66C118.603 77.8067 118.683 77.9933 118.683 78.22C118.683 78.4467 118.603 78.64 118.443 78.8C118.296 78.9467 118.11 79.02 117.883 79.02H116.383C116.156 79.02 115.963 78.9467 115.803 78.8C115.656 78.64 115.583 78.4467 115.583 78.22ZM112.623 82.28C112.623 82.0533 112.696 81.8667 112.843 81.72C113.003 81.56 113.196 81.48 113.423 81.48C113.65 81.48 113.836 81.56 113.983 81.72C114.13 81.8667 114.203 82.0533 114.203 82.28C114.203 82.5067 114.13 82.7 113.983 82.86C113.836 83.0067 113.65 83.08 113.423 83.08C113.196 83.08 113.003 83.0067 112.843 82.86C112.696 82.7 112.623 82.5067 112.623 82.28ZM123.9 77.84L127.18 72.02V70.12C127.18 69.8933 127.254 69.7067 127.4 69.56C127.56 69.4 127.754 69.32 127.98 69.32C128.207 69.32 128.394 69.4 128.54 69.56C128.687 69.7067 128.76 69.8933 128.76 70.12V72.22C128.76 72.3667 128.727 72.4933 128.66 72.6L125.38 78.44V80.18C125.38 80.4067 125.307 80.6 125.16 80.76C125.014 80.9067 124.827 80.98 124.6 80.98C124.374 80.98 124.18 80.9067 124.02 80.76C123.874 80.6 123.8 80.4067 123.8 80.18V78.22C123.8 78.1 123.834 77.9733 123.9 77.84ZM121.02 69.32C121.247 69.32 121.434 69.4 121.58 69.56C121.74 69.7067 121.82 69.8933 121.82 70.12V72.02L123.82 75.8C123.927 76 123.94 76.2067 123.86 76.42C123.794 76.62 123.667 76.7733 123.48 76.88C123.374 76.9333 123.254 76.96 123.12 76.96C122.8 76.96 122.567 76.82 122.42 76.54L120.32 72.58C120.254 72.4733 120.22 72.3533 120.22 72.22V70.12C120.22 69.8933 120.294 69.7067 120.44 69.56C120.6 69.4 120.794 69.32 121.02 69.32ZM124.6 81.48C124.827 81.48 125.014 81.56 125.16 81.72C125.32 81.8667 125.4 82.0533 125.4 82.28C125.4 82.5067 125.32 82.7 125.16 82.86C125.014 83.0067 124.827 83.08 124.6 83.08C124.374 83.08 124.18 83.0067 124.02 82.86C123.874 82.7 123.8 82.5067 123.8 82.28C123.8 82.0533 123.874 81.8667 124.02 81.72C124.18 81.56 124.374 81.48 124.6 81.48ZM129.556 80.08V74.16C129.556 73.9333 129.63 73.7467 129.776 73.6C129.923 73.44 130.11 73.36 130.336 73.36C130.563 73.36 130.75 73.44 130.896 73.6C131.056 73.7467 131.136 73.9333 131.136 74.16V79.74L133.116 81.5H134.676C134.903 81.5 135.09 81.5733 135.236 81.72C135.396 81.8667 135.476 82.0533 135.476 82.28C135.476 82.5067 135.396 82.7 135.236 82.86C135.09 83.0067 134.903 83.08 134.676 83.08H132.816C132.63 83.08 132.456 83.0133 132.296 82.88L129.816 80.68C129.643 80.5333 129.556 80.3333 129.556 80.08ZM130.196 71.74L131.836 69.62C131.996 69.42 132.203 69.32 132.456 69.32H135.076C135.316 69.32 135.516 69.4133 135.676 69.6L137.516 71.7C137.65 71.86 137.716 72.0333 137.716 72.22V75.16C137.716 75.3867 137.636 75.58 137.476 75.74C137.33 75.8867 137.143 75.96 136.916 75.96C136.69 75.96 136.503 75.8867 136.356 75.74C136.21 75.58 136.136 75.3867 136.136 75.16V72.52L134.716 70.9H132.836L131.436 72.7C131.263 72.9133 131.056 73.02 130.816 73.02C130.643 73.02 130.476 72.96 130.316 72.84C130.143 72.7067 130.043 72.5333 130.016 72.32C129.99 72.1067 130.05 71.9133 130.196 71.74ZM133.076 78.22C133.076 77.9933 133.15 77.8067 133.296 77.66C133.456 77.5 133.65 77.42 133.876 77.42H136.916C137.143 77.42 137.33 77.5 137.476 77.66C137.636 77.8067 137.716 77.9933 137.716 78.22V80.18C137.716 80.4067 137.636 80.6 137.476 80.76C137.33 80.9067 137.143 80.98 136.916 80.98C136.69 80.98 136.503 80.9067 136.356 80.76C136.21 80.6 136.136 80.4067 136.136 80.18V79.02H133.876C133.65 79.02 133.456 78.9467 133.296 78.8C133.15 78.64 133.076 78.4467 133.076 78.22ZM136.916 81.48C137.143 81.48 137.33 81.56 137.476 81.72C137.636 81.8667 137.716 82.0533 137.716 82.28C137.716 82.5067 137.636 82.7 137.476 82.86C137.33 83.0067 137.143 83.08 136.916 83.08C136.69 83.08 136.503 83.0067 136.356 82.86C136.21 82.7 136.136 82.5067 136.136 82.28C136.136 82.0533 136.21 81.8667 136.356 81.72C136.503 81.56 136.69 81.48 136.916 81.48ZM139.321 69.32H144.081C144.641 69.32 145.148 69.4667 145.601 69.76C146.068 70.04 146.421 70.4333 146.661 70.94C146.901 71.4333 146.994 71.9533 146.941 72.5C146.888 73.0333 146.688 73.52 146.341 73.96L142.561 78.72C142.494 78.8267 142.401 78.9067 142.281 78.96C142.174 79 142.068 79.02 141.961 79.02C141.774 79.02 141.608 78.96 141.461 78.84C141.288 78.7067 141.188 78.5333 141.161 78.32C141.134 78.1067 141.188 77.9133 141.321 77.74L145.081 72.98C145.414 72.5533 145.468 72.1 145.241 71.62C145.134 71.3933 144.974 71.22 144.761 71.1C144.561 70.9667 144.334 70.9 144.081 70.9H140.121V80.36C140.121 80.5733 140.041 80.76 139.881 80.92C139.734 81.0667 139.548 81.14 139.321 81.14C139.094 81.14 138.908 81.0667 138.761 80.92C138.614 80.76 138.541 80.5733 138.541 80.36V70.12C138.541 69.8933 138.614 69.7067 138.761 69.56C138.908 69.4 139.094 69.32 139.321 69.32ZM142.741 79.2C142.901 79.0267 143.101 78.94 143.341 78.94C143.554 78.94 143.728 79.0067 143.861 79.14L146.681 81.7C146.854 81.8467 146.941 82.0267 146.941 82.24C146.954 82.4533 146.888 82.6467 146.741 82.82C146.568 82.9933 146.374 83.08 146.161 83.08C145.974 83.08 145.794 83.0133 145.621 82.88L142.801 80.32C142.641 80.1733 142.554 79.9933 142.541 79.78C142.528 79.5533 142.594 79.36 142.741 79.2ZM139.321 81.5C139.548 81.5 139.734 81.5733 139.881 81.72C140.041 81.8667 140.121 82.0533 140.121 82.28C140.121 82.5067 140.041 82.7 139.881 82.86C139.734 83.0067 139.548 83.08 139.321 83.08C139.094 83.08 138.901 83.0067 138.741 82.86C138.594 82.7 138.521 82.5067 138.521 82.28C138.521 82.0533 138.594 81.8667 138.741 81.72C138.901 81.5733 139.094 81.5 139.321 81.5ZM147.369 76.2C147.369 75.2533 147.549 74.36 147.909 73.52C148.269 72.68 148.755 71.9533 149.369 71.34C149.995 70.7133 150.729 70.22 151.569 69.86C152.409 69.5 153.302 69.32 154.249 69.32C155.195 69.32 156.089 69.5 156.929 69.86C157.769 70.22 158.495 70.7133 159.109 71.34C159.735 71.9533 160.229 72.68 160.589 73.52C160.949 74.36 161.129 75.2533 161.129 76.2C161.129 77.1467 160.949 78.04 160.589 78.88C160.229 79.72 159.735 80.4533 159.109 81.08C158.495 81.6933 157.769 82.18 156.929 82.54C156.089 82.9 155.195 83.08 154.249 83.08C153.302 83.08 152.409 82.9 151.569 82.54C150.729 82.18 149.995 81.6933 149.369 81.08C148.755 80.4533 148.269 79.72 147.909 78.88C147.549 78.04 147.369 77.1467 147.369 76.2ZM148.949 76.2C148.949 76.9333 149.089 77.62 149.369 78.26C149.649 78.9 150.029 79.46 150.509 79.94C150.989 80.42 151.549 80.8 152.189 81.08C152.829 81.36 153.515 81.5 154.249 81.5C154.982 81.5 155.669 81.36 156.309 81.08C156.949 80.8 157.509 80.42 157.989 79.94C158.469 79.46 158.849 78.9 159.129 78.26C159.409 77.62 159.549 76.9333 159.549 76.2C159.549 75.4667 159.409 74.78 159.129 74.14C158.849 73.5 158.469 72.94 157.989 72.46C157.509 71.98 156.949 71.6 156.309 71.32C155.669 71.04 154.982 70.9 154.249 70.9C153.515 70.9 152.829 71.04 152.189 71.32C151.549 71.6 150.989 71.98 150.509 72.46C150.029 72.94 149.649 73.5 149.369 74.14C149.089 74.78 148.949 75.4667 148.949 76.2ZM153.449 76.2C153.449 75.9733 153.522 75.7867 153.669 75.64C153.829 75.48 154.022 75.4 154.249 75.4C154.475 75.4 154.662 75.48 154.809 75.64C154.969 75.7867 155.049 75.9733 155.049 76.2C155.049 76.4267 154.969 76.62 154.809 76.78C154.662 76.9267 154.475 77 154.249 77C154.022 77 153.829 76.9267 153.669 76.78C153.522 76.62 153.449 76.4267 153.449 76.2ZM161.92 72.22C161.92 71.9933 161.993 71.8067 162.14 71.66C162.3 71.5 162.493 71.42 162.72 71.42C162.946 71.42 163.133 71.5 163.28 71.66C163.426 71.8067 163.5 71.9933 163.5 72.22V79.98L164.28 81.5H168.12L169.02 79.96V70.12C169.02 69.8933 169.093 69.7067 169.24 69.56C169.386 69.4 169.573 69.32 169.8 69.32C170.026 69.32 170.213 69.4 170.36 69.56C170.52 69.7067 170.6 69.8933 170.6 70.12V80.18C170.6 80.3267 170.56 80.46 170.48 80.58L169.26 82.68C169.1 82.9467 168.873 83.08 168.58 83.08H163.8C163.653 83.08 163.513 83.0467 163.38 82.98C163.26 82.9 163.166 82.7867 163.1 82.64L162.02 80.54C161.953 80.4333 161.92 80.3133 161.92 80.18V72.22ZM162.72 69.32C162.946 69.32 163.133 69.4 163.28 69.56C163.44 69.7067 163.52 69.8933 163.52 70.12C163.52 70.3467 163.44 70.54 163.28 70.7C163.133 70.8467 162.946 70.92 162.72 70.92C162.493 70.92 162.3 70.8467 162.14 70.7C161.993 70.54 161.92 70.3467 161.92 70.12C161.92 69.8933 161.993 69.7067 162.14 69.56C162.3 69.4 162.493 69.32 162.72 69.32ZM171.392 80.18V70.12C171.392 69.9333 171.446 69.7733 171.552 69.64C171.659 69.4933 171.806 69.4 171.992 69.36C172.166 69.3067 172.332 69.3133 172.492 69.38C172.652 69.4467 172.779 69.56 172.872 69.72L179.952 81.88C180.059 82.0667 180.086 82.2667 180.032 82.48C179.979 82.6933 179.859 82.8533 179.672 82.96C179.552 83.04 179.419 83.08 179.272 83.08C179.139 83.08 179.006 83.0467 178.872 82.98C178.752 82.9133 178.659 82.8133 178.592 82.68L172.972 73.04V80.18C172.972 80.4067 172.899 80.6 172.752 80.76C172.606 80.9067 172.419 80.98 172.192 80.98C171.966 80.98 171.772 80.9067 171.612 80.76C171.466 80.6 171.392 80.4067 171.392 80.18ZM178.492 70.12C178.492 69.8933 178.566 69.7067 178.712 69.56C178.859 69.4 179.046 69.32 179.272 69.32C179.499 69.32 179.686 69.4 179.832 69.56C179.992 69.7067 180.072 69.8933 180.072 70.12V77.8C180.072 78.0267 179.992 78.22 179.832 78.38C179.686 78.5267 179.499 78.6 179.272 78.6C179.046 78.6 178.859 78.5267 178.712 78.38C178.566 78.22 178.492 78.0267 178.492 77.8V70.12ZM171.392 82.28C171.392 82.0533 171.466 81.8667 171.612 81.72C171.772 81.5733 171.966 81.5 172.192 81.5C172.419 81.5 172.606 81.5733 172.752 81.72C172.912 81.8667 172.992 82.0533 172.992 82.28C172.992 82.5067 172.912 82.7 172.752 82.86C172.606 83.0067 172.419 83.08 172.192 83.08C171.966 83.08 171.772 83.0067 171.612 82.86C171.466 82.7 171.392 82.5067 171.392 82.28ZM181.665 69.32H186.125C186.378 69.32 186.585 69.42 186.745 69.62L188.385 71.74C188.532 71.9133 188.592 72.1067 188.565 72.32C188.538 72.5333 188.438 72.7067 188.265 72.84C188.105 72.96 187.938 73.02 187.765 73.02C187.525 73.02 187.318 72.9133 187.145 72.7L185.745 70.9H182.445V80.18C182.445 80.4067 182.372 80.6 182.225 80.76C182.078 80.9067 181.892 80.98 181.665 80.98C181.438 80.98 181.245 80.9067 181.085 80.76C180.938 80.6 180.865 80.4067 180.865 80.18V70.12C180.865 69.8933 180.938 69.7067 181.085 69.56C181.245 69.4 181.438 69.32 181.665 69.32ZM183.105 82.28C183.105 82.0533 183.178 81.8667 183.325 81.72C183.485 81.5733 183.678 81.5 183.905 81.5H185.205L187.445 78.34V74.16C187.445 73.9333 187.518 73.7467 187.665 73.6C187.825 73.44 188.018 73.36 188.245 73.36C188.458 73.36 188.638 73.44 188.785 73.6C188.945 73.7467 189.025 73.9333 189.025 74.16V78.6C189.025 78.7733 188.978 78.9267 188.885 79.06L186.265 82.74C186.105 82.9667 185.885 83.08 185.605 83.08H183.905C183.678 83.08 183.485 83.0067 183.325 82.86C183.178 82.7 183.105 82.5067 183.105 82.28ZM181.645 81.48C181.872 81.48 182.058 81.56 182.205 81.72C182.365 81.8667 182.445 82.0533 182.445 82.28C182.445 82.5067 182.365 82.7 182.205 82.86C182.058 83.0067 181.872 83.08 181.645 83.08C181.432 83.08 181.245 83.0067 181.085 82.86C180.938 82.7 180.865 82.5067 180.865 82.28C180.865 82.0533 180.938 81.8667 181.085 81.72C181.245 81.56 181.432 81.48 181.645 81.48Z" fill="white"/>
</svg>
