<svg width="505" height="283" viewBox="0 0 505 283" fill="none" xmlns="http://www.w3.org/2000/svg">
<rect x="11.7428" width="482.627" height="283" rx="10" fill="#FA8245"/>
<rect x="0.5" y="18.1143" width="503.938" height="87.0705" rx="4.5" fill="white" stroke="#FA8245"/>
<path d="M83.2957 85.826C80.7483 83.1049 81.9701 78.6287 85.3879 77.1413C91.1682 74.6258 96.0079 71.3829 99.9072 67.4128C103.668 63.6179 106.581 59.4678 108.647 54.9626C110.092 51.8097 107.381 48.5994 103.934 48.9765C102.981 49.0807 102.015 49.1888 101.035 49.3008C97.5274 49.6515 94.0953 50.0272 90.7385 50.4281C88.0543 50.7127 85.5682 51.0139 83.2802 51.3316C82.2641 51.4727 81.2279 51.3093 80.3103 50.8505L76.9174 49.154C75.2503 48.3205 74.1852 46.6288 74.1542 44.7652L74.0601 39.1225C74.0151 36.4195 76.1266 34.1699 78.8251 34.0067C79.7626 33.95 80.7527 33.8875 81.7952 33.8191C84.8515 33.5686 88.1081 33.3181 91.5652 33.0676C95.0222 32.767 98.4542 32.4664 101.861 32.1658C105.318 31.815 108.575 31.4894 111.631 31.1888C114.009 30.9159 116.129 30.6582 117.991 30.4156C118.989 30.2857 120.004 30.4525 120.904 30.9024L126.621 33.7613C126.898 33.8998 127.162 34.0636 127.408 34.2508L130.979 36.9614C132.4 38.04 133.148 39.7963 132.884 41.5607C130.975 54.3181 127.197 64.9897 121.551 73.5753C115.858 82.1866 107.755 88.787 97.2443 93.3765C95.9354 93.948 94.4417 93.8771 93.1643 93.2384L88.4588 90.8857C87.9286 90.6206 87.4498 90.2634 87.0447 89.8307L83.2957 85.826ZM120.953 32.2971C119.893 31.4915 118.556 31.1453 117.235 31.31C115.55 31.5201 113.657 31.7302 111.556 31.9403C108.55 32.2409 105.343 32.5666 101.936 32.9173C98.5294 33.2179 95.1224 33.5185 91.7155 33.8191C88.3586 34.0696 85.2022 34.3202 82.2461 34.5707C81.2995 34.6348 80.3992 34.6939 79.5451 34.7478C76.8594 34.9173 74.7576 37.1527 74.7914 39.8436L74.8085 41.1999C74.8468 44.2446 77.5757 46.5525 80.5995 46.194C81.607 46.0746 82.6569 45.9578 83.7492 45.8437C87.1061 45.4429 90.5631 45.0671 94.1204 44.7164C97.6777 44.3156 101.085 43.9649 104.341 43.6642C105.143 43.5914 105.918 43.5214 106.667 43.4545C109.863 43.1684 112.492 45.9518 111.612 49.038C110.639 52.4467 109.268 55.7158 107.498 58.8453C104.742 63.8054 100.984 68.1392 96.2247 71.8468C93.424 74.0516 90.269 75.9463 86.7596 77.531C83.3536 79.069 82.1341 83.5673 84.6982 86.2861L85.4746 87.1094C86.8825 88.6022 89.0679 89.1002 90.9331 88.2447C100.586 83.8175 108.087 77.5249 113.435 69.3668C118.977 60.983 122.68 50.5859 124.542 38.1754C124.806 36.413 124.06 34.6586 122.641 33.5803L120.953 32.2971Z" fill="#FA8245"/>
<path d="M158.152 86.2675C156.041 83.1392 158.037 78.8733 161.692 77.9359C164.05 77.3313 166.202 76.5792 168.147 75.6796C172.155 73.8259 175.437 71.6464 177.992 69.1413C178.016 69.1182 178.04 69.0951 178.064 69.0721C180.967 66.2681 178.507 62.1624 174.491 62.5692C174.381 62.5804 174.27 62.5917 174.159 62.6029C170.702 62.9537 167.345 63.3044 164.088 63.6551C161.434 63.941 158.996 64.2102 156.774 64.4628C155.809 64.5725 154.833 64.4008 153.964 63.9666L150.544 62.2564C148.85 61.4094 147.78 59.6781 147.78 57.7842V52.8405C147.78 50.2126 149.814 48.0336 152.439 47.8962C152.588 47.8884 152.738 47.8806 152.89 47.8728C153.094 47.8575 153.3 47.842 153.507 47.8262C155.173 47.6989 155.602 45.4707 154.107 44.7233C153.546 44.4427 153.191 43.8692 153.191 43.2418V36.552C153.191 33.8853 155.284 31.688 157.945 31.5156C158.775 31.4619 159.645 31.403 160.556 31.3391C163.462 31.1387 166.543 30.9132 169.8 30.6627C173.057 30.4122 176.263 30.1366 179.42 29.836C182.626 29.4853 185.582 29.1847 188.288 28.9342C190.265 28.7144 191.975 28.5215 193.418 28.3553C194.386 28.2437 195.366 28.4149 196.238 28.8508L199.653 30.5583C201.347 31.4053 202.417 33.1366 202.417 35.0305V43.2605C202.417 43.9081 201.91 44.4425 201.263 44.4765C200.017 44.5421 199.664 46.2152 200.777 46.7787L202.362 47.5819C202.449 47.6255 202.531 47.6763 202.608 47.7339L206.277 50.464C207.898 51.6707 208.645 53.7388 208.091 55.6828C206.215 62.2784 203.872 68.0171 201.064 72.899C197.807 78.5104 193.599 83.1449 188.438 86.8024C183.739 90.1652 177.961 92.8503 171.102 94.8578C169.929 95.2012 168.67 95.068 167.577 94.5212L162.933 92.1993C162.163 91.8144 161.506 91.2374 161.024 90.5241L158.152 86.2675ZM194.15 34.6959C194.15 31.6805 191.5 29.3447 188.505 29.6923C188.31 29.7148 188.113 29.7377 187.912 29.7608C185.357 30.0114 182.501 30.2869 179.344 30.5875C176.238 30.8881 173.107 31.1637 169.95 31.4142C166.794 31.6647 163.813 31.8902 161.007 32.0906C160.192 32.1488 159.416 32.2027 158.677 32.2525C156.024 32.4312 153.943 34.626 153.943 37.2853V37.7177C153.943 40.7452 156.614 43.0902 159.628 42.8018C160.027 42.7636 160.437 42.7254 160.857 42.6872C163.662 42.3866 166.644 42.1111 169.8 41.8606C173.007 41.5599 176.163 41.2844 179.269 41.0339C182.376 40.7333 185.232 40.4827 187.837 40.2823C188.348 40.243 188.839 40.2066 189.311 40.1731C192.005 39.982 194.15 37.761 194.15 35.0604V34.6959ZM196.456 45.9783C195.366 45.1718 193.997 44.8467 192.653 45.0235C191.406 45.1875 189.901 45.3607 188.137 45.5431C185.232 45.8437 181.95 46.1694 178.292 46.5201C174.685 46.8207 171.002 47.1464 167.245 47.4971C163.487 47.7977 159.955 48.0733 156.648 48.3238C155.414 48.3997 154.26 48.472 153.184 48.5407C150.563 48.7082 148.532 50.8868 148.532 53.5132V54.4376C148.532 57.4261 151.136 59.748 154.108 59.4344C155.227 59.3163 156.399 59.1951 157.625 59.0707C161.132 58.6699 164.715 58.2941 168.372 57.9434C172.08 57.5426 175.562 57.1919 178.818 56.8913C179.208 56.85 179.59 56.8097 179.965 56.7705C183.441 56.4068 186.006 59.6387 184.269 62.6722C184.182 62.8237 184.094 62.976 184.004 63.129C182.501 65.6341 180.472 68.0641 177.917 70.4189C175.411 72.7737 172.23 74.8279 168.372 76.5815C166.719 77.3428 164.929 77.9907 163.002 78.5254C159.355 79.5375 157.361 83.8326 159.496 86.9585L160.065 87.7913C161.26 89.5408 163.434 90.3642 165.454 89.726C171.338 87.8672 176.369 85.4397 180.547 82.4435C185.557 78.8361 189.666 74.2768 192.872 68.7655C195.62 64.0431 197.889 58.5297 199.68 52.2255C200.232 50.2821 199.48 48.2168 197.856 47.0148L196.456 45.9783Z" fill="#FA8245"/>
<path d="M235.858 88.7564C233.537 86.0415 234.738 81.8419 237.998 80.3814C241.645 78.7474 244.715 76.9046 247.208 74.853C250.044 72.5491 252.403 69.9443 254.286 67.0385C255.135 65.7282 253.813 64.256 252.354 64.8119C251.9 64.9847 251.395 64.9595 250.961 64.7424L250.239 64.3816C249.23 63.8771 248.043 63.879 247.035 64.3865L241.182 67.3356C239.772 68.0462 238.109 68.0488 236.697 67.3425L233.587 65.788C232.222 65.1053 231.251 63.8342 230.899 62.3488C230.346 60.0175 229.695 57.6723 228.946 55.313C228.502 53.8932 228.029 52.5175 227.526 51.1861C226.52 48.5197 227.685 45.4504 230.314 44.3499L234.289 42.6858C234.857 42.4483 235.5 42.4717 236.048 42.7498L239.22 44.3574C239.748 44.6248 240.333 44.1148 240.14 43.5556C240.019 43.204 240.213 42.8218 240.568 42.7121L248.222 40.3483C249.452 39.9683 250.782 40.0777 251.934 40.6535L255.872 42.6229C257.017 43.1951 257.906 44.1815 258.3 45.3985C258.486 45.971 258.671 46.5703 258.857 47.1965C259.16 48.1825 260.566 48.129 260.699 47.1059C260.769 46.5637 260.831 46.0177 260.886 45.4679C260.931 45.0067 260.975 44.5417 261.017 44.0729C261.267 41.3194 263.651 39.2364 266.409 39.4293L271.164 39.7618C271.821 39.8078 272.462 39.983 273.051 40.2775L276.657 42.0806C278.481 42.9922 279.578 44.9208 279.36 46.9476C278.823 51.934 278.001 56.6013 276.894 60.9496C275.591 66.2103 273.687 71.0201 271.182 75.379C268.677 79.7379 265.42 83.6459 261.412 87.103C257.891 90.0958 253.616 92.7793 248.588 95.1535C247.247 95.7867 245.69 95.738 244.363 95.0747L239.847 92.8168C239.249 92.5178 238.717 92.1019 238.283 91.5936L235.858 88.7564ZM236.918 88.7925C238.255 90.3352 240.448 90.8424 242.279 89.9381C246.647 87.7799 250.42 85.3568 253.596 82.6689C257.504 79.3121 260.661 75.5293 263.066 71.3207C265.521 67.062 267.374 62.3775 268.627 57.267C269.59 53.4896 270.334 49.4658 270.859 45.1957C271.17 42.6614 269.254 40.4309 266.708 40.2446C264.163 40.0584 261.967 41.9844 261.703 44.522C261.32 48.2093 260.772 51.656 260.059 54.8621C259.107 59.3713 257.554 63.4296 255.4 67.037C253.296 70.6444 250.365 73.8259 246.607 76.5815C244.4 78.1917 241.821 79.6599 238.869 80.9862C235.832 82.3509 234.737 86.276 236.918 88.7925ZM250.202 58.3125C252.289 57.5363 253.513 55.3608 253.032 53.1866C252.675 51.5718 252.287 49.9258 251.868 48.2486C251.583 47.0304 251.295 45.8945 251.003 44.8408C250.354 42.5056 247.881 41.2893 245.565 42.002C243.036 42.7802 241.682 45.5397 242.356 48.0984C242.395 48.2471 242.435 48.3974 242.473 48.5492C242.974 50.4531 243.425 52.4322 243.826 54.4864C243.832 54.5166 243.838 54.5467 243.844 54.5769C244.408 57.4854 247.425 59.3452 250.202 58.3125ZM237.367 60.849C239.258 59.8952 240.258 57.7611 239.656 55.7306C239.183 54.1382 238.644 52.521 238.039 50.879C237.558 49.5728 237.072 48.3347 236.58 47.1648C235.651 44.9552 233.089 44.0162 230.882 44.9507C228.483 45.9666 227.434 48.7892 228.366 51.222C228.824 52.4163 229.267 53.6798 229.697 55.0124C229.996 55.9221 230.272 56.814 230.526 57.6881C231.372 60.6039 234.656 62.2162 237.367 60.849Z" fill="#FA8245"/>
<path d="M331.483 48.2582C330.152 50.5017 327.322 51.3407 324.967 50.2184C323.629 49.5807 322.335 48.9742 321.084 48.3989C318.579 47.1965 316.45 46.2195 314.696 45.4679C313.516 44.9475 312.577 44.5832 311.878 44.3751C311.363 44.2218 310.844 44.0678 310.363 43.8275L308.341 42.8166C305.759 41.5254 304.804 38.3215 306.257 35.8269L308.185 32.5197C309.357 30.5087 311.766 29.5608 313.955 30.3519C316.427 31.2453 319.029 32.3009 321.76 33.5185C324.771 34.8444 328.024 36.4907 331.521 38.4573C333.917 39.8049 334.682 42.8674 333.279 45.2316L331.483 48.2582ZM324.845 41.47C326.194 39.1979 325.527 36.2791 323.148 35.1287C322.869 34.9938 322.582 34.8579 322.287 34.721C320.282 33.769 318.228 32.8672 316.124 32.0154C315.437 31.7374 314.774 31.4807 314.135 31.2454C312.012 30.4632 309.695 31.4207 308.554 33.3754L307.625 34.9682C306.162 37.4757 307.505 40.7487 310.187 41.8606C312.291 42.7123 314.345 43.6392 316.349 44.6412C316.421 44.6742 316.491 44.7072 316.561 44.7401C319.219 45.9861 322.599 45.2503 324.098 42.7269L324.845 41.47ZM301.339 83.2576C300.016 80.1881 302.025 76.7168 305.293 76.0163C314.536 74.0352 322.355 70.3156 328.75 64.8575C335.35 59.2182 340.539 52.1509 344.318 43.6557C345.539 40.9109 348.781 39.5887 351.468 40.9322L352.817 41.6065C353.545 41.9708 354.174 42.5075 354.648 43.1699L360.29 51.059C361.368 52.5664 361.532 54.5504 360.664 56.1876C358.65 59.9851 356.504 63.5515 354.227 66.8867C351.421 70.9951 348.114 74.7528 344.306 78.1597C340.499 81.5667 335.964 84.6229 330.704 87.3284C325.947 89.798 320.356 91.9963 313.93 93.9232C312.734 94.282 311.446 94.1582 310.328 93.5994L306.183 91.5269C305.129 90.9996 304.294 90.1165 303.828 89.0336L301.339 83.2576ZM351.954 47.5554C349.689 44.3742 344.684 45.0477 342.871 48.5071C341.031 52.018 338.879 55.2886 336.415 58.3192C332.107 63.63 326.896 67.9639 320.783 71.3207C316.417 73.6828 311.591 75.4568 306.305 76.6429C303.053 77.3725 301.067 80.8406 302.394 83.8979L303.192 85.7386C304.186 88.0284 306.721 89.2467 309.101 88.4935C314.375 86.8242 319.046 84.9328 323.113 82.8192C328.224 80.1638 332.633 77.1827 336.34 73.876C340.048 70.5191 343.279 66.8616 346.035 62.9035C348.278 59.6408 350.372 56.1623 352.316 52.4679C353.142 50.8982 352.983 49.0004 351.954 47.5554ZM325.233 63.6308C323.926 65.9906 320.983 66.8848 318.56 65.6994C317.792 65.3242 317.006 64.9434 316.199 64.5569C313.794 63.3545 311.565 62.2773 309.51 61.3253C307.739 60.4614 306.304 59.8582 305.203 59.5157C304.871 59.4123 304.544 59.2929 304.233 59.1374L301.94 57.9908C299.362 56.7021 298.405 53.5073 299.848 51.0135L301.787 47.6659C302.962 45.6358 305.394 44.6876 307.598 45.4897C309.796 46.2892 312.187 47.2339 314.771 48.3238C317.882 49.5983 321.4 51.3636 325.325 53.6197C327.641 54.9513 328.407 57.9038 327.112 60.2407L325.233 63.6308ZM318.587 56.662C319.863 54.3428 319.103 51.435 316.719 50.2854C316.404 50.1339 316.081 49.981 315.748 49.8268C313.694 48.8248 311.615 47.9229 309.51 47.1213C308.92 46.8765 308.35 46.6483 307.801 46.4366C305.656 45.6094 303.29 46.5654 302.138 48.5554L301.316 49.9742C299.799 52.5955 301.165 55.9988 303.949 57.1919C306.053 58.0937 308.082 59.0707 310.036 60.1229C310.11 60.1599 310.184 60.1968 310.257 60.2337C312.917 61.5771 316.327 60.7711 317.763 58.1605L318.587 56.662Z" fill="#FA8245"/>
<path d="M430.733 82.7815C430.733 85.4218 428.681 87.6091 426.048 87.8132C425.574 87.8499 425.082 87.8888 424.57 87.9297C422.115 88.1301 419.36 88.3555 416.304 88.6061C413.297 88.8566 410.216 89.1071 407.06 89.3576C403.903 89.6582 400.822 89.9338 397.816 90.1843C394.81 90.4348 392.079 90.6853 389.624 90.9358C387.866 91.1152 386.339 91.269 385.043 91.397C384.108 91.4894 383.166 91.3141 382.326 90.8939L378.86 89.1613C377.166 88.3144 376.096 86.5831 376.096 84.6892V81.5731C376.096 78.8744 378.238 76.6572 380.932 76.51C381.381 76.4855 381.849 76.4592 382.334 76.4312C384.99 76.2809 387.921 76.0805 391.127 75.83C393.046 75.6529 394.982 75.4757 396.935 75.2986C399.322 75.0822 401.222 73.2049 401.464 70.8203L402.162 63.9271C402.48 60.791 399.851 58.1454 396.72 58.5062C396.609 58.519 396.499 58.5318 396.388 58.5446C394.767 58.7331 393.161 58.9357 391.569 59.1525C390.547 59.2915 389.507 59.1199 388.589 58.6514L385.301 56.9738C383.659 56.1363 382.611 54.4638 382.574 52.6214L382.51 49.4525C382.454 46.7063 384.625 44.4246 387.365 44.2394C387.921 44.2018 388.499 44.1604 389.098 44.1152C391.753 43.9148 394.609 43.6893 397.665 43.4388C400.772 43.1382 403.803 42.8376 406.759 42.5369C409.134 42.2954 411.331 42.0701 413.351 41.8609C414.298 41.7628 415.253 41.9365 416.104 42.3623L419.249 43.9345C421.097 44.8586 422.186 46.8243 421.99 48.8813L419.958 70.1956C419.817 71.6699 421.063 72.9027 422.536 72.746C422.981 72.6987 423.43 72.7799 423.831 72.9801L427.969 75.0492C429.663 75.8962 430.733 77.6275 430.733 79.5214V82.7815ZM416.952 74.1089C413.824 74.4542 411.167 71.8413 411.46 68.7078L413.338 48.6142C413.629 45.4959 411.015 42.8828 407.9 43.2053C407.406 43.2564 406.9 43.3092 406.383 43.3636C403.578 43.6141 400.672 43.8897 397.665 44.1903C394.709 44.4408 391.954 44.6663 389.399 44.8667C388.746 44.9179 388.124 44.9642 387.533 45.0056C385.11 45.1754 383.192 47.1918 383.23 49.6208C383.273 52.3403 385.725 54.3812 388.425 54.0515C390.159 53.8398 391.936 53.659 393.758 53.5094C395.208 53.3703 396.623 53.2352 398.002 53.104C401.136 52.8059 403.759 55.4476 403.443 58.5802L402.14 71.4844C401.898 73.8745 399.991 75.7546 397.599 75.9664C395.565 76.1464 393.558 76.3263 391.578 76.5063C388.271 76.7568 385.315 76.9823 382.71 77.1827C382.207 77.2123 381.728 77.2399 381.272 77.2656C378.803 77.4046 376.848 79.4403 376.848 81.9127C376.848 84.645 379.218 86.7829 381.94 86.5484C382.119 86.533 382.3 86.5174 382.484 86.5018C384.839 86.2512 387.47 86.0007 390.376 85.7502C393.332 85.4496 396.363 85.174 399.469 84.9235C402.576 84.673 405.607 84.4225 408.563 84.172C411.519 83.9215 414.199 83.696 416.604 83.4956C417.137 83.4521 417.647 83.4109 418.133 83.3722C420.572 83.1774 422.466 81.1458 422.466 78.6986C422.466 75.9248 420.056 73.7662 417.299 74.0706L416.952 74.1089Z" fill="#FA8245"/>
<g filter="url(#filter0_d_37_7)">
<path d="M285.339 153.839L284.738 159.55L268.805 161.053V153.839H245.959L245.358 159.25L229.425 160.753V153.839H209.885L207.63 142.866L229.425 141.814V129.639L248.514 131.894L247.462 140.762L268.805 139.71V129.639L287.744 131.894L286.993 138.808L308.787 137.606V153.839H285.339ZM205.226 149.931C205.226 153.638 203.923 156.845 201.318 159.55C198.712 162.156 195.506 163.458 191.698 163.458C187.99 163.458 184.784 162.156 182.078 159.55C179.473 156.845 178.17 153.638 178.17 149.931C178.17 146.123 179.473 142.916 182.078 140.311C184.784 137.706 187.99 136.403 191.698 136.403C195.506 136.403 198.712 137.706 201.318 140.311C203.923 142.916 205.226 146.123 205.226 149.931ZM259.035 237.259C255.328 243.973 250.167 249.334 243.554 253.342C236.94 257.35 229.124 261.158 220.106 264.765L215.446 255.747C221.058 252.641 225.918 249.685 230.026 246.879C234.135 244.073 237.542 240.867 240.247 237.259H209.284L207.029 226.888L246.259 224.934C246.56 223.732 246.811 222.529 247.011 221.327C247.312 220.024 247.562 218.721 247.762 217.419H215.296L213.042 207.348L248.664 205.244C248.765 204.041 248.815 202.588 248.815 200.885C248.815 199.181 248.815 198.33 248.815 198.33H217.1L214.244 162.406H232.281V166.014L303.677 161.354L300.821 198.33H267.002L266.701 204.192L303.226 202.087V217.419H265.649C265.348 219.723 264.897 221.928 264.296 224.032L309.539 221.627V237.259H259.035ZM205.226 181.044C205.226 184.351 204.023 187.207 201.618 189.612C199.213 192.017 196.357 193.219 193.051 193.219C189.744 193.219 186.888 192.017 184.483 189.612C182.078 187.207 180.876 184.351 180.876 181.044C180.876 177.738 182.078 174.882 184.483 172.477C186.888 170.072 189.744 168.869 193.051 168.869C196.357 168.869 199.213 170.072 201.618 172.477C204.023 174.882 205.226 177.738 205.226 181.044ZM285.64 176.535H268.054L267.603 185.554L285.64 184.351V176.535ZM249.566 176.535H232.281V187.808L249.266 186.756L249.566 176.535ZM174.413 248.532C178.22 242.62 181.627 236.858 184.633 231.247C187.74 225.535 190.345 220.425 192.449 215.916C194.654 211.406 196.357 207.799 197.56 205.093C198.762 202.388 199.364 201.035 199.364 201.035L209.434 205.244C209.434 205.244 209.083 206.797 208.382 209.903C207.681 212.909 206.628 217.018 205.226 222.228C203.923 227.339 202.219 233.101 200.115 239.514C198.011 245.927 195.606 252.54 192.9 259.354L174.413 248.532ZM300.52 251.087C300.52 254.494 299.268 257.4 296.763 259.805C294.257 262.31 291.251 263.563 287.744 263.563C284.337 263.563 281.381 262.31 278.876 259.805C276.371 257.4 275.118 254.494 275.118 251.087C275.118 247.58 276.371 244.624 278.876 242.219C281.381 239.714 284.337 238.462 287.744 238.462C291.251 238.462 294.257 239.714 296.763 242.219C299.268 244.624 300.52 247.58 300.52 251.087Z" fill="white"/>
<path d="M436.999 186.455V166.164H347.416V183.449L330.131 186.455L327.425 146.774H347.416V152.035L384.842 150.231C383.339 149.129 382.137 147.726 381.235 146.023C380.333 144.319 379.882 142.466 379.882 140.461C379.882 137.054 381.085 134.149 383.49 131.744C385.895 129.339 388.801 128.136 392.208 128.136C395.615 128.136 398.52 129.339 400.925 131.744C403.33 134.149 404.533 137.054 404.533 140.461C404.533 144.069 403.18 147.075 400.474 149.48L456.99 146.774L454.284 183.449L436.999 186.455ZM404.833 227.038L403.03 264.765L360.192 257.551V249.284L386.947 246.278V227.038H332.085L329.079 214.563L386.947 211.707V200.584L395.214 201.185C398.12 198.58 400.374 196.326 401.977 194.422C403.581 192.518 404.382 191.566 404.382 191.566H352.076L349.069 179.541L423.471 173.529L434.744 188.86C434.744 188.86 433.392 189.762 430.686 191.566C427.981 193.269 424.423 195.474 420.014 198.179C415.605 200.785 410.896 203.49 405.885 206.296L405.585 210.805L453.833 208.551V227.038H404.833Z" fill="white"/>
</g>
<g filter="url(#filter1_d_37_7)">
<path d="M90.1971 261.863C89.8806 261.58 89.7616 261.201 89.5041 261.03C87.341 259.595 86.229 257.001 86.8563 254.231C87.3261 252.156 87.2795 249.967 87.5082 247.834C87.8598 244.554 88.2656 241.279 88.6189 237.999C88.8435 235.914 88.9923 233.821 89.215 231.736C89.5706 228.408 89.9737 225.084 90.3288 221.756C90.5514 219.669 90.7 217.574 90.9229 215.487C91.278 212.162 91.6807 208.842 92.0357 205.516C92.1792 204.172 92.25 202.819 92.3681 201.287C91.7936 201.287 91.2896 201.287 90.7857 201.287C81.3511 201.287 71.9165 201.296 62.482 201.28C60.0868 201.276 58.0888 200.378 57.0708 198.123C56.0918 195.955 56.054 193.728 57.451 191.633C72.608 168.909 87.7627 146.184 102.912 123.456C103.372 122.766 103.759 122.029 104.202 121.328C105.416 119.406 106.677 117.525 108.658 116.325C110.183 116.253 111.801 116.253 113.554 116.253C113.854 116.471 113.976 116.769 114.196 116.896C116.673 118.326 117.747 120.981 117.205 123.786C116.826 125.745 116.767 127.764 116.528 129.752C116.184 132.61 115.797 135.463 115.448 138.321C115.222 140.17 115.044 142.024 114.822 143.874C114.458 146.915 114.056 149.951 113.705 152.994C113.39 155.722 113.15 158.459 112.825 161.187C112.485 164.043 112.079 166.891 111.714 169.744C111.673 170.063 111.708 170.392 111.708 170.857C112.279 170.857 112.789 170.857 113.299 170.857C124.779 170.857 136.259 170.952 147.736 170.806C151.882 170.753 155.381 175.508 153.119 179.581C151.757 182.032 150.029 184.282 148.441 186.605C144.536 192.315 140.628 198.025 136.699 203.719C132.457 209.867 128.187 215.996 123.933 222.136C118.787 229.565 113.647 236.999 108.499 244.427C105.11 249.316 101.76 254.233 98.2827 259.058C97.5205 260.116 96.2945 260.84 95.3767 261.79C93.7577 261.863 92.044 261.863 90.1971 261.863Z" fill="url(#paint0_linear_37_7)"/>
</g>
<defs>
<filter id="filter0_d_37_7" x="170.413" y="128.136" width="290.577" height="144.629" filterUnits="userSpaceOnUse" color-interpolation-filters="sRGB">
<feFlood flood-opacity="0" result="BackgroundImageFix"/>
<feColorMatrix in="SourceAlpha" type="matrix" values="0 0 0 0 0 0 0 0 0 0 0 0 0 0 0 0 0 0 127 0" result="hardAlpha"/>
<feOffset dy="4"/>
<feGaussianBlur stdDeviation="2"/>
<feComposite in2="hardAlpha" operator="out"/>
<feColorMatrix type="matrix" values="0 0 0 0 0 0 0 0 0 0 0 0 0 0 0 0 0 0 0.25 0"/>
<feBlend mode="normal" in2="BackgroundImageFix" result="effect1_dropShadow_37_7"/>
<feBlend mode="normal" in="SourceGraphic" in2="effect1_dropShadow_37_7" result="shape"/>
</filter>
<filter id="filter1_d_37_7" x="56.3652" y="116.253" width="102.465" height="149.61" filterUnits="userSpaceOnUse" color-interpolation-filters="sRGB">
<feFlood flood-opacity="0" result="BackgroundImageFix"/>
<feColorMatrix in="SourceAlpha" type="matrix" values="0 0 0 0 0 0 0 0 0 0 0 0 0 0 0 0 0 0 127 0" result="hardAlpha"/>
<feOffset dx="5" dy="4"/>
<feComposite in2="hardAlpha" operator="out"/>
<feColorMatrix type="matrix" values="0 0 0 0 0.126725 0 0 0 0 0.126725 0 0 0 0 0.126725 0 0 0 0.5 0"/>
<feBlend mode="normal" in2="BackgroundImageFix" result="effect1_dropShadow_37_7"/>
<feBlend mode="normal" in="SourceGraphic" in2="effect1_dropShadow_37_7" result="shape"/>
</filter>
<linearGradient id="paint0_linear_37_7" x1="105.098" y1="116.253" x2="105.098" y2="261.863" gradientUnits="userSpaceOnUse">
<stop stop-color="#FFC107"/>
<stop offset="1" stop-color="white"/>
</linearGradient>
</defs>
</svg>
