<svg width="745" height="242" viewBox="0 0 745 242" fill="none" xmlns="http://www.w3.org/2000/svg">
<path d="M53.6981 31.4107C10.2727 60.4304 -6.98766 93.4571 3.59773 127.515C9.68311 147.122 23.1006 163.89 49.0154 184.253C56.7105 190.341 76.0612 203.295 85.8499 208.954C119.2 228.202 153.827 240.973 173.096 241.05C182.027 241.076 189.368 238.732 193.802 234.446C202.63 225.897 209.173 208.471 213.052 183.056C219.679 140.012 216.681 86.4771 205.93 54.3531C199.543 35.4771 189.584 21.2249 176.344 12.0979C169.781 7.585 164.515 5.22067 156.341 3.03083C136.677 -2.16585 115.404 0.753486 87.681 12.5764C80.7684 15.5633 61.5586 26.2053 53.6981 31.4107Z" fill="url(#paint0_linear_592_2)"/>
<path d="M76.7118 162.667C70.7815 162.667 65.7029 161.689 61.476 159.734C57.3122 157.716 54.0632 154.815 51.7289 151.031C49.4577 147.183 48.2275 142.548 48.0382 137.124C47.9752 134.412 47.9436 131.511 47.9436 128.42C47.9436 125.33 47.9752 122.397 48.0382 119.622C48.2275 114.324 49.4577 109.815 51.7289 106.093C54.0632 102.372 57.3437 99.5341 61.5706 97.579C65.8606 95.5608 70.9077 94.5516 76.7118 94.5516C81.3803 94.5516 85.481 95.1508 89.014 96.3491C92.5469 97.5475 95.512 99.1242 97.9094 101.079C100.307 102.971 102.136 105.053 103.398 107.323C104.66 109.594 105.322 111.77 105.385 113.851C105.385 114.419 105.196 114.923 104.818 115.365C104.439 115.743 103.934 115.932 103.303 115.932H91.569C90.9381 115.932 90.4334 115.806 90.0549 115.554C89.7395 115.302 89.4556 114.923 89.2032 114.419C88.7616 113.283 88.0361 112.148 87.0267 111.013C86.0804 109.815 84.7871 108.805 83.1468 107.985C81.5065 107.166 79.3615 106.756 76.7118 106.756C72.7372 106.756 69.5828 107.796 67.2486 109.878C64.9774 111.959 63.7472 115.365 63.5579 120.095C63.3686 125.519 63.3686 131.037 63.5579 136.651C63.7472 141.57 65.0089 145.102 67.3432 147.246C69.7405 149.391 72.9265 150.463 76.901 150.463C79.4877 150.463 81.7904 150.021 83.8092 149.139C85.8911 148.192 87.5314 146.742 88.7301 144.787C89.9287 142.832 90.5281 140.34 90.5281 137.313V134.948H80.2132C79.5823 134.948 79.046 134.727 78.6044 134.286C78.1628 133.781 77.942 133.213 77.942 132.583V126.528C77.942 125.834 78.1628 125.267 78.6044 124.825C79.046 124.384 79.5823 124.163 80.2132 124.163H103.398C104.092 124.163 104.66 124.384 105.101 124.825C105.543 125.267 105.764 125.834 105.764 126.528V136.84C105.764 142.264 104.565 146.9 102.168 150.747C99.8336 154.594 96.4583 157.558 92.0422 159.64C87.6891 161.658 82.579 162.667 76.7118 162.667ZM144.37 162.667C138.818 162.667 133.961 161.752 129.797 159.923C125.633 158.031 122.415 155.162 120.144 151.314C117.873 147.404 116.737 142.453 116.737 136.461V97.8628C116.737 97.169 116.958 96.6014 117.4 96.1599C117.842 95.7184 118.409 95.4977 119.103 95.4977H129.418C130.112 95.4977 130.68 95.7184 131.122 96.1599C131.563 96.6014 131.784 97.169 131.784 97.8628V136.367C131.784 141.034 132.888 144.503 135.096 146.773C137.304 149.044 140.396 150.179 144.37 150.179C148.282 150.179 151.341 149.044 153.549 146.773C155.757 144.503 156.862 141.034 156.862 136.367V97.8628C156.862 97.169 157.082 96.6014 157.524 96.1599C158.029 95.7184 158.596 95.4977 159.227 95.4977H169.637C170.268 95.4977 170.804 95.7184 171.246 96.1599C171.687 96.6014 171.908 97.169 171.908 97.8628V136.461C171.908 142.453 170.772 147.404 168.501 151.314C166.23 155.162 163.044 158.031 158.943 159.923C154.843 161.752 149.985 162.667 144.37 162.667ZM187.688 161.721C186.994 161.721 186.426 161.5 185.985 161.059C185.543 160.617 185.322 160.05 185.322 159.356V97.8628C185.322 97.169 185.543 96.6014 185.985 96.1599C186.426 95.7184 186.994 95.4977 187.688 95.4977H198.381C199.075 95.4977 199.643 95.7184 200.085 96.1599C200.526 96.6014 200.747 97.169 200.747 97.8628V159.356C200.747 160.05 200.526 160.617 200.085 161.059C199.643 161.5 199.075 161.721 198.381 161.721H187.688Z" fill="white"/>
<path d="M256.634 161.721C255.94 161.721 255.372 161.5 254.931 161.059C254.489 160.617 254.268 160.05 254.268 159.356V108.648H237.045C236.414 108.648 235.878 108.427 235.437 107.985C234.995 107.544 234.774 107.008 234.774 106.377V97.8628C234.774 97.169 234.995 96.6014 235.437 96.1599C235.878 95.7184 236.414 95.4977 237.045 95.4977H286.633C287.327 95.4977 287.894 95.7184 288.336 96.1599C288.778 96.6014 288.998 97.169 288.998 97.8628V106.377C288.998 107.008 288.778 107.544 288.336 107.985C287.894 108.427 287.327 108.648 286.633 108.648H269.504V159.356C269.504 160.05 269.283 160.617 268.842 161.059C268.4 161.5 267.832 161.721 267.138 161.721H256.634ZM293.693 161.721C293.062 161.721 292.526 161.5 292.084 161.059C291.643 160.617 291.422 160.05 291.422 159.356V114.892C291.422 114.261 291.643 113.725 292.084 113.283C292.526 112.779 293.062 112.527 293.693 112.527H302.967C303.598 112.527 304.134 112.779 304.576 113.283C305.081 113.725 305.333 114.261 305.333 114.892V118.676C306.91 116.721 308.834 115.207 311.106 114.135C313.44 113.063 316.121 112.527 319.149 112.527H323.218C323.849 112.527 324.386 112.747 324.827 113.189C325.269 113.63 325.49 114.198 325.49 114.892V123.028C325.49 123.721 325.269 124.289 324.827 124.731C324.386 125.172 323.849 125.393 323.218 125.393H314.891C312.115 125.393 309.938 126.181 308.361 127.758C306.784 129.272 305.995 131.447 305.995 134.286V159.356C305.995 160.05 305.775 160.617 305.333 161.059C304.891 161.5 304.324 161.721 303.63 161.721H293.693ZM346.193 162.667C342.849 162.667 339.853 162.036 337.203 160.775C334.553 159.45 332.44 157.684 330.863 155.477C329.285 153.27 328.497 150.81 328.497 148.098C328.497 143.62 330.295 140.088 333.891 137.502C337.55 134.916 342.345 133.15 348.275 132.204L360.672 130.407V128.704C360.672 126.244 360.104 124.352 358.968 123.028C357.833 121.703 355.845 121.041 353.007 121.041C350.925 121.041 349.253 121.451 347.991 122.271C346.729 123.091 345.751 124.163 345.057 125.487C344.553 126.307 343.827 126.717 342.881 126.717H333.891C333.197 126.717 332.661 126.528 332.282 126.15C331.904 125.708 331.746 125.204 331.809 124.636C331.809 123.564 332.219 122.302 333.039 120.852C333.859 119.401 335.121 117.982 336.824 116.595C338.528 115.144 340.704 113.946 343.354 113C346.004 112.053 349.253 111.58 353.101 111.58C357.076 111.58 360.482 112.053 363.321 113C366.16 113.946 368.432 115.27 370.135 116.973C371.838 118.676 373.1 120.663 373.92 122.933C374.74 125.14 375.15 127.537 375.15 130.123V159.356C375.15 160.05 374.93 160.617 374.488 161.059C374.046 161.5 373.479 161.721 372.785 161.721H363.511C362.88 161.721 362.344 161.5 361.902 161.059C361.46 160.617 361.239 160.05 361.239 159.356V155.855C360.419 157.054 359.315 158.189 357.927 159.261C356.539 160.27 354.868 161.09 352.912 161.721C351.019 162.352 348.78 162.667 346.193 162.667ZM349.978 152.828C352.06 152.828 353.921 152.387 355.562 151.504C357.202 150.621 358.495 149.265 359.441 147.436C360.388 145.607 360.861 143.305 360.861 140.529V138.921L352.06 140.34C348.653 140.908 346.161 141.759 344.584 142.895C343.007 144.03 342.218 145.417 342.218 147.057C342.218 148.256 342.565 149.296 343.259 150.179C344.016 151.062 344.994 151.724 346.193 152.166C347.392 152.607 348.653 152.828 349.978 152.828ZM388.88 161.721C388.249 161.721 387.713 161.5 387.271 161.059C386.83 160.617 386.609 160.05 386.609 159.356V114.892C386.609 114.198 386.83 113.63 387.271 113.189C387.713 112.747 388.249 112.527 388.88 112.527H398.154C398.848 112.527 399.416 112.747 399.857 113.189C400.299 113.63 400.52 114.198 400.52 114.892V118.581C402.16 116.563 404.273 114.892 406.86 113.567C409.447 112.243 412.601 111.58 416.323 111.58C420.045 111.58 423.295 112.432 426.07 114.135C428.909 115.775 431.117 118.203 432.695 121.419C434.335 124.573 435.155 128.42 435.155 132.961V159.356C435.155 160.05 434.903 160.617 434.398 161.059C433.956 161.5 433.42 161.721 432.789 161.721H422.758C422.064 161.721 421.496 161.5 421.055 161.059C420.613 160.617 420.392 160.05 420.392 159.356V133.529C420.392 130.186 419.572 127.6 417.932 125.771C416.355 123.879 414.021 122.933 410.929 122.933C407.964 122.933 405.598 123.879 403.832 125.771C402.065 127.6 401.182 130.186 401.182 133.529V159.356C401.182 160.05 400.961 160.617 400.52 161.059C400.078 161.5 399.542 161.721 398.911 161.721H388.88ZM465.892 162.667C461.981 162.667 458.605 162.226 455.766 161.343C452.991 160.396 450.719 159.261 448.953 157.937C447.25 156.612 445.956 155.288 445.073 153.963C444.253 152.576 443.811 151.409 443.748 150.463C443.685 149.769 443.906 149.202 444.411 148.76C444.915 148.319 445.42 148.098 445.925 148.098H455.104C455.293 148.098 455.483 148.129 455.672 148.192C455.861 148.256 456.05 148.413 456.24 148.666C457.06 149.233 457.911 149.895 458.795 150.652C459.678 151.346 460.687 151.945 461.823 152.45C463.022 152.954 464.504 153.207 466.271 153.207C468.353 153.207 470.119 152.797 471.57 151.977C473.021 151.094 473.747 149.864 473.747 148.287C473.747 147.152 473.4 146.206 472.706 145.449C472.075 144.692 470.845 143.998 469.015 143.368C467.185 142.737 464.473 142.043 460.877 141.286C457.47 140.529 454.568 139.52 452.17 138.259C449.773 136.998 447.975 135.421 446.776 133.529C445.578 131.574 444.978 129.24 444.978 126.528C444.978 124.068 445.735 121.703 447.25 119.433C448.827 117.162 451.13 115.302 454.158 113.851C457.186 112.337 460.971 111.58 465.514 111.58C468.983 111.58 472.012 112.022 474.598 112.905C477.248 113.725 479.456 114.797 481.223 116.121C482.989 117.383 484.314 118.707 485.197 120.095C486.143 121.419 486.648 122.586 486.711 123.595C486.774 124.226 486.585 124.762 486.143 125.204C485.702 125.645 485.197 125.866 484.629 125.866H476.207C475.892 125.866 475.608 125.834 475.355 125.771C475.103 125.645 474.882 125.487 474.693 125.298C473.936 124.794 473.147 124.226 472.327 123.595C471.57 122.902 470.655 122.302 469.583 121.798C468.51 121.293 467.122 121.041 465.419 121.041C463.337 121.041 461.728 121.514 460.593 122.46C459.52 123.343 458.984 124.478 458.984 125.866C458.984 126.749 459.268 127.569 459.836 128.326C460.403 129.082 461.571 129.776 463.337 130.407C465.104 131.038 467.785 131.7 471.381 132.393C475.671 133.15 479.078 134.286 481.601 135.799C484.125 137.313 485.923 139.079 486.995 141.097C488.131 143.052 488.698 145.165 488.698 147.436C488.698 150.4 487.815 153.049 486.049 155.382C484.282 157.653 481.696 159.45 478.289 160.775C474.945 162.036 470.813 162.667 465.892 162.667ZM500.149 179.696C499.455 179.696 498.887 179.475 498.446 179.034C498.004 178.592 497.783 178.024 497.783 177.331V114.892C497.783 114.198 498.004 113.63 498.446 113.189C498.887 112.747 499.455 112.527 500.149 112.527H509.139C509.833 112.527 510.401 112.747 510.842 113.189C511.284 113.63 511.505 114.198 511.505 114.892V118.487C513.019 116.468 514.975 114.829 517.372 113.567C519.769 112.243 522.766 111.58 526.362 111.58C529.643 111.58 532.482 112.117 534.879 113.189C537.339 114.198 539.39 115.68 541.03 117.635C542.733 119.527 544.027 121.829 544.91 124.541C545.856 127.253 546.393 130.312 546.519 133.718C546.582 134.916 546.613 136.052 546.613 137.124C546.613 138.196 546.582 139.363 546.519 140.624C546.456 143.841 545.951 146.805 545.005 149.517C544.121 152.229 542.828 154.563 541.125 156.518C539.421 158.473 537.339 159.987 534.879 161.059C532.482 162.131 529.643 162.667 526.362 162.667C523.145 162.667 520.337 162.099 517.94 160.964C515.606 159.766 513.681 158.158 512.167 156.139V177.331C512.167 178.024 511.946 178.592 511.505 179.034C511.063 179.475 510.527 179.696 509.896 179.696H500.149ZM522.104 151.314C524.501 151.314 526.394 150.81 527.782 149.801C529.169 148.729 530.147 147.341 530.715 145.638C531.346 143.935 531.725 142.075 531.851 140.056C531.977 138.101 531.977 136.146 531.851 134.191C531.725 132.173 531.346 130.312 530.715 128.609C530.147 126.906 529.169 125.55 527.782 124.541C526.394 123.469 524.501 122.933 522.104 122.933C519.769 122.933 517.877 123.469 516.426 124.541C514.975 125.614 513.934 126.97 513.303 128.609C512.672 130.249 512.293 132.015 512.167 133.907C512.104 135.042 512.073 136.209 512.073 137.408C512.073 138.606 512.104 139.804 512.167 141.003C512.23 142.768 512.609 144.44 513.303 146.017C514.06 147.53 515.132 148.792 516.52 149.801C517.971 150.81 519.832 151.314 522.104 151.314ZM579.175 162.667C573.938 162.667 569.554 161.816 566.021 160.113C562.488 158.347 559.775 155.855 557.882 152.639C556.053 149.422 555.043 145.67 554.854 141.381C554.791 140.12 554.76 138.7 554.76 137.124C554.76 135.484 554.791 134.065 554.854 132.867C555.043 128.515 556.116 124.762 558.072 121.609C560.027 118.392 562.772 115.932 566.305 114.229C569.838 112.463 574.128 111.58 579.175 111.58C584.159 111.58 588.417 112.463 591.95 114.229C595.483 115.932 598.227 118.392 600.183 121.609C602.139 124.762 603.211 128.515 603.401 132.867C603.527 134.065 603.59 135.484 603.59 137.124C603.59 138.7 603.527 140.12 603.401 141.381C603.211 145.67 602.17 149.422 600.278 152.639C598.448 155.855 595.767 158.347 592.234 160.113C588.701 161.816 584.348 162.667 579.175 162.667ZM579.175 152.26C582.266 152.26 584.6 151.314 586.177 149.422C587.755 147.467 588.606 144.629 588.733 140.908C588.796 139.962 588.827 138.7 588.827 137.124C588.827 135.547 588.796 134.286 588.733 133.34C588.606 129.681 587.755 126.875 586.177 124.92C584.6 122.965 582.266 121.987 579.175 121.987C576.083 121.987 573.718 122.965 572.077 124.92C570.5 126.875 569.648 129.681 569.522 133.34C569.459 134.286 569.428 135.547 569.428 137.124C569.428 138.7 569.459 139.962 569.522 140.908C569.648 144.629 570.5 147.467 572.077 149.422C573.718 151.314 576.083 152.26 579.175 152.26Z" fill="#3F3D56"/>
<path d="M714.373 106.056C713.569 107.048 712.527 107.762 711.391 108.187L711.642 112.794L707.213 113.025L706.972 108.432C706.044 108.167 705.132 107.742 704.328 107.088C701.266 104.602 700.807 100.093 703.296 97.037C705.792 93.9814 710.282 93.509 713.351 96.005C716.413 98.4977 716.872 102.994 714.373 106.056Z" fill="#3F3D56"/>
<path d="M690.507 106.056C689.697 107.048 688.661 107.762 687.522 108.187L687.77 112.794L683.344 113.025L683.106 108.432C682.175 108.167 681.26 107.742 680.46 107.088C677.397 104.602 676.935 100.093 679.424 97.037C681.92 93.9814 686.41 93.509 689.475 96.005C692.544 98.4977 693 102.994 690.507 106.056Z" fill="#3F3D56"/>
<path d="M666.281 104.944C665.36 105.839 664.244 106.422 663.065 106.71L662.78 111.323L658.354 111.028L658.649 106.442C657.758 106.073 656.903 105.544 656.183 104.807C653.425 101.979 653.492 97.4493 656.317 94.6952C659.151 91.9546 663.664 92.0048 666.425 94.8393C669.176 97.6737 669.115 102.187 666.281 104.944Z" fill="#3F3D56"/>
<path d="M714.373 170.046C713.569 169.057 712.527 168.344 711.391 167.918L711.642 163.305L707.213 163.084L706.972 167.67C706.044 167.932 705.132 168.364 704.328 169.014C701.266 171.506 700.807 176.006 703.296 179.072C705.792 182.127 710.282 182.59 713.351 180.097C716.413 177.611 716.872 173.115 714.373 170.046Z" fill="#3F3D56"/>
<path d="M690.507 170.046C689.697 169.057 688.661 168.344 687.522 167.918L687.77 163.305L683.344 163.084L683.106 167.67C682.175 167.932 681.26 168.364 680.46 169.014C677.397 171.506 676.935 176.006 679.424 179.072C681.92 182.127 686.41 182.59 689.475 180.097C692.544 177.611 693 173.115 690.507 170.046Z" fill="#3F3D56"/>
<path d="M666.482 171.644C665.624 170.696 664.549 170.039 663.386 169.674L663.396 165.054L658.96 165.067L658.967 169.661C658.049 169.969 657.164 170.451 656.397 171.138C653.465 173.788 653.248 178.311 655.891 181.236C658.545 184.154 663.054 184.382 665.986 181.732C668.914 179.082 669.139 174.569 666.482 171.644Z" fill="#3F3D56"/>
<path d="M706.042 147.226C706.042 144.688 708.082 142.629 710.593 142.629C713.111 142.629 715.147 144.688 715.147 147.226C715.147 149.76 713.111 151.816 710.593 151.816C708.082 151.816 706.042 149.76 706.042 147.226ZM683.302 147.226C683.302 144.688 685.342 142.629 687.853 142.629C690.371 142.629 692.408 144.688 692.408 147.226C692.408 149.76 690.371 151.816 687.853 151.816C685.342 151.816 683.302 149.76 683.302 147.226ZM660.562 147.226C660.562 144.688 662.602 142.629 665.113 142.629C667.631 142.629 669.668 144.688 669.668 147.226C669.668 149.76 667.631 151.816 665.113 151.816C662.602 151.816 660.562 149.76 660.562 147.226ZM706.042 128.212C706.042 125.677 708.082 123.621 710.593 123.621C713.111 123.621 715.147 125.677 715.147 128.212C715.147 130.753 713.111 132.809 710.593 132.809C708.082 132.809 706.042 130.753 706.042 128.212ZM683.302 128.212C683.302 125.677 685.342 123.621 687.853 123.621C690.371 123.621 692.408 125.677 692.408 128.212C692.408 130.753 690.371 132.809 687.853 132.809C685.342 132.809 683.302 130.753 683.302 128.212ZM660.562 128.212C660.562 125.677 662.602 123.621 665.113 123.621C667.631 123.621 669.668 125.677 669.668 128.212C669.668 130.753 667.631 132.809 665.113 132.809C662.602 132.809 660.562 130.753 660.562 128.212ZM733.638 168.43L744.95 149.987L744.95 126.27L733.638 107.827C714.93 116.172 636.617 107.827 636.617 107.827L622.697 118.368L616.167 118.368L616.167 135.93L616.167 140.32L616.167 157.889L622.697 157.889L636.617 168.43C636.617 168.43 714.93 160.085 733.638 168.43Z" fill="#F57C00"/>
<defs>
<linearGradient id="paint0_linear_592_2" x1="204.781" y1="209.023" x2="12.9194" y2="88.0892" gradientUnits="userSpaceOnUse">
<stop stop-color="#F57C00"/>
<stop offset="1" stop-color="#FFA726"/>
</linearGradient>
</defs>
</svg>
