<svg xmlns="http://www.w3.org/2000/svg" width="343.5" height="251.657" viewBox="0 0 343.5 251.657">
  <g id="design-service" transform="translate(-218.81 -162.988)">
    <path id="Path_211" data-name="Path 211" d="M546.752,408.639H258.209L233.5,291.795a17.442,17.442,0,0,1,.426-10.21l55.283-93.667a17.455,17.455,0,0,1,15.246-11.61L506.9,163.031a17.456,17.456,0,0,1,17.3,10.631l46.616,110.472a17.462,17.462,0,0,1,.964,10.532Z" transform="translate(-9.882)" fill="#35363a"/>
    <path id="Path_212" data-name="Path 212" d="M586.615,221.311H395.89V394.493H586.615Z" transform="translate(-123.902 -40.808)" fill="#3f4249"/>
    <path id="Path_213" data-name="Path 213" d="M403.359,262.45h-4.775a.44.44,0,0,1-.438-.261.439.439,0,0,1,.259-.591.445.445,0,0,1,.179-.022h4.775a.438.438,0,0,1,.438.261.438.438,0,0,1-.438.613Z" transform="translate(-125.455 -68.98)" fill="#b2b6bb"/>
    <path id="Path_214" data-name="Path 214" d="M403.359,288.52h-4.775a.44.44,0,0,1-.179-.023.438.438,0,0,1,.179-.851h4.775a.436.436,0,0,1,.179.022.439.439,0,0,1-.179.852Z" transform="translate(-125.455 -87.222)" fill="#b2b6bb"/>
    <path id="Path_215" data-name="Path 215" d="M403.359,314.59h-4.775a.439.439,0,0,1-.438-.613.438.438,0,0,1,.438-.261h4.775a.439.439,0,0,1,.438.261.438.438,0,0,1-.438.613Z" transform="translate(-125.455 -105.463)" fill="#b2b6bb"/>
    <path id="Path_216" data-name="Path 216" d="M403.359,340.66h-4.775a.44.44,0,0,1-.438-.261.438.438,0,0,1,.438-.613h4.775a.438.438,0,1,1,0,.874Z" transform="translate(-125.455 -123.704)" fill="#b2b6bb"/>
    <path id="Path_217" data-name="Path 217" d="M403.45,366.74h-4.775a.435.435,0,0,1,0-.871h4.775a.435.435,0,1,1,0,.871Z" transform="translate(-125.547 -141.955)" fill="#b2b6bb"/>
    <path id="Path_218" data-name="Path 218" d="M403.359,392.811h-4.775a.438.438,0,0,1-.179-.852.435.435,0,0,1,.179-.022h4.775a.435.435,0,0,1,.179.022.439.439,0,0,1-.179.852Z" transform="translate(-125.455 -160.194)" fill="#b2b6bb"/>
    <path id="Path_219" data-name="Path 219" d="M403.359,418.881h-4.775a.439.439,0,0,1-.438-.613.438.438,0,0,1,.438-.261h4.775a.439.439,0,0,1,.438.261.438.438,0,0,1-.438.613Z" transform="translate(-125.455 -178.435)" fill="#b2b6bb"/>
    <path id="Path_220" data-name="Path 220" d="M403.359,444.961h-4.775a.439.439,0,0,1-.179-.852.436.436,0,0,1,.179-.022h4.775a.436.436,0,0,1,.179.022.438.438,0,0,1-.179.852Z" transform="translate(-125.455 -196.683)" fill="#b2b6bb"/>
    <path id="Path_221" data-name="Path 221" d="M403.359,471.02h-4.775a.438.438,0,1,1,0-.874h4.775a.44.44,0,0,1,.333.114.439.439,0,0,1-.333.76Z" transform="translate(-125.455 -214.917)" fill="#b2b6bb"/>
    <path id="Path_222" data-name="Path 222" d="M403.359,497.09h-4.775a.439.439,0,0,1-.438-.613.439.439,0,0,1,.438-.261h4.775a.438.438,0,0,1,.438.613.438.438,0,0,1-.438.261Z" transform="translate(-125.455 -233.158)" fill="#b2b6bb"/>
    <path id="Path_223" data-name="Path 223" d="M403.359,523.17h-4.775a.438.438,0,1,1,0-.874h4.775a.437.437,0,0,1,.179.022.438.438,0,0,1,.3.415.438.438,0,0,1-.475.437Z" transform="translate(-125.455 -251.406)" fill="#b2b6bb"/>
    <path id="Path_224" data-name="Path 224" d="M403.359,549.241h-4.775a.44.44,0,0,1-.438-.261.439.439,0,0,1,.259-.591.447.447,0,0,1,.179-.022h4.775a.447.447,0,0,1,.179.022.438.438,0,0,1,.155.737.438.438,0,0,1-.333.114Z" transform="translate(-125.455 -269.647)" fill="#b2b6bb"/>
    <path id="Path_225" data-name="Path 225" d="M403.359,575.311h-4.775a.44.44,0,0,1-.179-.023.431.431,0,0,1-.154-.092.438.438,0,0,1,.333-.76h4.775a.438.438,0,1,1,0,.874Z" transform="translate(-125.455 -287.889)" fill="#b2b6bb"/>
    <path id="Path_226" data-name="Path 226" d="M403.359,601.381h-4.775a.439.439,0,0,1-.438-.613.439.439,0,0,1,.438-.261h4.775a.438.438,0,0,1,.438.613.438.438,0,0,1-.438.261Z" transform="translate(-125.455 -306.13)" fill="#b2b6bb"/>
    <path id="Path_227" data-name="Path 227" d="M403.359,627.45h-4.775a.44.44,0,0,1-.438-.261.439.439,0,0,1,.259-.591.446.446,0,0,1,.179-.022h4.775a.446.446,0,0,1,.179.022.438.438,0,0,1,.155.737.438.438,0,0,1-.333.114Z" transform="translate(-125.455 -324.37)" fill="#b2b6bb"/>
    <path id="Path_228" data-name="Path 228" d="M403.45,653.531h-4.775a.433.433,0,0,1-.308-.128.428.428,0,0,1-.094-.141.434.434,0,0,1,0-.333.436.436,0,0,1,.235-.235.435.435,0,0,1,.167-.033h4.775a.438.438,0,0,1,.308.128.435.435,0,0,1-.308.743Z" transform="translate(-125.547 -342.622)" fill="#b2b6bb"/>
    <path id="Path_229" data-name="Path 229" d="M403.359,679.6h-4.775a.446.446,0,0,1-.179-.022.438.438,0,0,1,.179-.852h4.775a.435.435,0,0,1,.179.022.438.438,0,0,1,0,.829A.446.446,0,0,1,403.359,679.6Z" transform="translate(-125.455 -360.859)" fill="#b2b6bb"/>
    <path id="Path_230" data-name="Path 230" d="M403.359,705.67h-4.775a.438.438,0,1,1,0-.874h4.775a.436.436,0,0,1,.179.022.438.438,0,0,1-.179.852Z" transform="translate(-125.455 -379.101)" fill="#b2b6bb"/>
    <path id="Path_231" data-name="Path 231" d="M403.359,731.741h-4.775a.439.439,0,0,1-.179-.852.447.447,0,0,1,.179-.022h4.775a.447.447,0,0,1,.179.022.438.438,0,0,1,.155.737.438.438,0,0,1-.333.114Z" transform="translate(-125.455 -397.342)" fill="#b2b6bb"/>
    <path id="Path_232" data-name="Path 232" d="M403.359,757.811h-4.775a.441.441,0,0,1-.179-.022.432.432,0,0,1-.154-.092.438.438,0,0,1,.333-.76h4.775a.441.441,0,0,1,.333.114.439.439,0,0,1,0,.645.436.436,0,0,1-.155.092.441.441,0,0,1-.179.022Z" transform="translate(-125.455 -415.583)" fill="#b2b6bb"/>
    <path id="Path_233" data-name="Path 233" d="M415.5,251.94a.445.445,0,0,1-.45-.435v-3a.45.45,0,0,1,.9,0v3a.445.445,0,0,1-.45.435Z" transform="translate(-137.309 -59.518)" fill="#b2b6bb"/>
    <path id="Path_234" data-name="Path 234" d="M446.41,251.94a.445.445,0,0,1-.45-.435v-3a.45.45,0,1,1,.9,0v3a.445.445,0,0,1-.45.435Z" transform="translate(-158.936 -59.518)" fill="#b2b6bb"/>
    <path id="Path_235" data-name="Path 235" d="M477.32,251.94a.445.445,0,0,1-.45-.435v-3a.45.45,0,1,1,.9,0v3a.445.445,0,0,1-.451.435Z" transform="translate(-180.564 -59.518)" fill="#b2b6bb"/>
    <path id="Path_236" data-name="Path 236" d="M508.23,251.94a.445.445,0,0,1-.45-.435v-3a.45.45,0,1,1,.9,0v3a.445.445,0,0,1-.451.435Z" transform="translate(-202.192 -59.518)" fill="#b2b6bb"/>
    <path id="Path_237" data-name="Path 237" d="M539.13,251.94a.445.445,0,0,1-.451-.435v-3a.45.45,0,0,1,.9,0v3a.445.445,0,0,1-.45.435Z" transform="translate(-223.812 -59.518)" fill="#b2b6bb"/>
    <path id="Path_238" data-name="Path 238" d="M570.04,251.94a.445.445,0,0,1-.45-.435v-3a.45.45,0,0,1,.9,0v3a.444.444,0,0,1-.45.435Z" transform="translate(-245.44 -59.518)" fill="#b2b6bb"/>
    <path id="Path_239" data-name="Path 239" d="M600.951,251.94a.445.445,0,0,1-.451-.435v-3a.45.45,0,1,1,.9,0v3a.444.444,0,0,1-.45.435Z" transform="translate(-267.067 -59.518)" fill="#b2b6bb"/>
    <path id="Path_240" data-name="Path 240" d="M631.86,251.94a.445.445,0,0,1-.45-.435v-3a.45.45,0,1,1,.9,0v3a.444.444,0,0,1-.45.435Z" transform="translate(-288.695 -59.518)" fill="#b2b6bb"/>
    <path id="Path_241" data-name="Path 241" d="M662.771,251.94a.444.444,0,0,1-.45-.435v-3a.45.45,0,1,1,.9,0v3a.445.445,0,0,1-.45.435Z" transform="translate(-310.323 -59.518)" fill="#b2b6bb"/>
    <path id="Path_242" data-name="Path 242" d="M693.68,251.94a.445.445,0,0,1-.45-.435v-3a.45.45,0,1,1,.9,0v3a.444.444,0,0,1-.45.435Z" transform="translate(-331.95 -59.518)" fill="#b2b6bb"/>
    <path id="Path_243" data-name="Path 243" d="M724.591,251.94a.445.445,0,0,1-.451-.435v-3a.45.45,0,0,1,.9,0v3a.444.444,0,0,1-.45.435Z" transform="translate(-353.578 -59.518)" fill="#b2b6bb"/>
    <path id="Path_244" data-name="Path 244" d="M755.5,251.94a.444.444,0,0,1-.45-.435v-3a.45.45,0,0,1,.9,0v3a.445.445,0,0,1-.45.435Z" transform="translate(-375.206 -59.518)" fill="#b2b6bb"/>
    <path id="Path_245" data-name="Path 245" d="M786.411,251.94a.445.445,0,0,1-.451-.435v-3a.45.45,0,1,1,.9,0v3a.445.445,0,0,1-.45.435Z" transform="translate(-396.833 -59.518)" fill="#b2b6bb"/>
    <path id="Path_246" data-name="Path 246" d="M817.32,251.94a.445.445,0,0,1-.45-.435v-3a.45.45,0,1,1,.9,0v3a.445.445,0,0,1-.451.435Z" transform="translate(-418.461 -59.518)" fill="#b2b6bb"/>
    <path id="Path_247" data-name="Path 247" d="M848.231,251.94a.445.445,0,0,1-.451-.435v-3a.45.45,0,1,1,.9,0v3a.445.445,0,0,1-.45.435Z" transform="translate(-440.089 -59.518)" fill="#b2b6bb"/>
    <path id="Path_248" data-name="Path 248" d="M879.141,251.94a.444.444,0,0,1-.45-.435v-3a.45.45,0,1,1,.9,0v3a.444.444,0,0,1-.45.435Z" transform="translate(-461.716 -59.518)" fill="#b2b6bb"/>
    <path id="Path_249" data-name="Path 249" d="M910.05,251.94a.445.445,0,0,1-.451-.435v-3a.45.45,0,0,1,.9,0v3a.445.445,0,0,1-.45.435Z" transform="translate(-483.344 -59.518)" fill="#b2b6bb"/>
    <path id="Path_250" data-name="Path 250" d="M940.95,251.94a.445.445,0,0,1-.45-.435v-3a.45.45,0,1,1,.9,0v3a.444.444,0,0,1-.45.435Z" transform="translate(-504.965 -59.518)" fill="#b2b6bb"/>
    <path id="Path_251" data-name="Path 251" d="M971.86,251.94a.445.445,0,0,1-.45-.435v-3a.45.45,0,1,1,.9,0v3a.445.445,0,0,1-.451.435Z" transform="translate(-526.592 -59.518)" fill="#b2b6bb"/>
    <path id="Path_252" data-name="Path 252" d="M1016.5,221.311h-6.225V399.9h6.225Z" transform="translate(-553.782 -40.808)" fill="#61656d"/>
    <path id="Path_253" data-name="Path 253" d="M1016.5,510.1h-6.225v15.339h6.225Z" transform="translate(-553.782 -242.873)" fill="#3f4249"/>
    <path id="Path_254" data-name="Path 254" d="M570.786,780.33H395.89v5.306h174.9Z" transform="translate(-123.902 -431.952)" fill="#61656d"/>
    <path id="Path_255" data-name="Path 255" d="M594.486,263.029H415.59V418.313h178.9Z" transform="translate(-137.686 -69.998)" fill="#414247"/>
    <g id="Group_19" data-name="Group 19" transform="translate(-67.798 19.724)">
      <path id="Path_537" data-name="Path 537" d="M576.847,256.1H686.668a3.546,3.546,0,0,1,3.547,3.547v60.169a3.546,3.546,0,0,1-3.547,3.547H576.847a3.546,3.546,0,0,1-3.547-3.547V259.647A3.546,3.546,0,0,1,576.847,256.1Z" transform="translate(-215.886 -65.989)" fill="#00fad9"/>
      <path id="Path_538" data-name="Path 538" d="M576.847,256.1H686.668a3.546,3.546,0,0,1,3.547,3.547v60.169a3.546,3.546,0,0,1-3.547,3.547H576.847a3.546,3.546,0,0,1-3.547-3.547V259.647A3.546,3.546,0,0,1,576.847,256.1Z" transform="translate(-215.886 -65.989)" fill="#fff" opacity="0.2"/>
      <path id="Path_539" data-name="Path 539" d="M572.745,256.1H682.567a3.546,3.546,0,0,1,3.547,3.547v60.169a3.546,3.546,0,0,1-3.547,3.547H572.745a3.546,3.546,0,0,1-3.547-3.547V259.647A3.52,3.52,0,0,1,572.745,256.1Z" transform="translate(-213.475 -65.989)" fill="#00fad9"/>
      <path id="Path_540" data-name="Path 540" d="M572.745,256.1H682.567a3.546,3.546,0,0,1,3.547,3.547v60.169a3.546,3.546,0,0,1-3.547,3.547H572.745a3.546,3.546,0,0,1-3.547-3.547V259.647A3.52,3.52,0,0,1,572.745,256.1Z" transform="translate(-213.475 -65.989)" fill="#2e2f33" opacity="0.6"/>
      <path id="Path_541" data-name="Path 541" d="M777.022,330.884h-27.96A2.068,2.068,0,0,1,747,328.822v-27.96a2.068,2.068,0,0,1,2.062-2.062h27.96a2.068,2.068,0,0,1,2.062,2.062v27.96A2.1,2.1,0,0,1,777.022,330.884Z" transform="translate(-317.952 -91.08)" fill="#00fad9"/>
      <path id="Path_542" data-name="Path 542" d="M777.022,330.884h-27.96A2.068,2.068,0,0,1,747,328.822v-27.96a2.068,2.068,0,0,1,2.062-2.062h27.96a2.068,2.068,0,0,1,2.062,2.062v27.96A2.1,2.1,0,0,1,777.022,330.884Z" transform="translate(-317.952 -91.08)" fill="#00fad9"/>
      <path id="Path_543" data-name="Path 543" d="M777.022,330.884h-27.96A2.068,2.068,0,0,1,747,328.822v-27.96a2.068,2.068,0,0,1,2.062-2.062h27.96a2.068,2.068,0,0,1,2.062,2.062v27.96A2.1,2.1,0,0,1,777.022,330.884Z" transform="translate(-317.952 -91.08)" fill="#fff" opacity="0.8"/>
      <path id="Path_544" data-name="Path 544" d="M781.546,316.791a2.846,2.846,0,1,0-2.846-2.846A2.845,2.845,0,0,0,781.546,316.791Z" transform="translate(-336.579 -98.307)" fill="#fff"/>
      <path id="Path_545" data-name="Path 545" d="M747,345.089v-7.712l10.846-8.083a1.176,1.176,0,0,1,1.443.041l3.753,3.3,7.629-5.98a1.18,1.18,0,0,1,1.485.041l6.887,6.021V345.13a2.068,2.068,0,0,1-2.062,2.062H749.062A2.16,2.16,0,0,1,747,345.089Z" transform="translate(-317.952 -107.305)" fill="#00fad9"/>
      <path id="Path_546" data-name="Path 546" d="M646.051,302.824H598.3a1.2,1.2,0,0,1-1.2-1.2V299.9a1.2,1.2,0,0,1,1.2-1.2h47.755a1.2,1.2,0,0,1,1.2,1.2v1.732A1.171,1.171,0,0,1,646.051,302.824Z" transform="translate(-229.87 -91.021)" fill="#fff"/>
      <path id="Path_547" data-name="Path 547" d="M646.158,331.844H598.072a1.072,1.072,0,0,1,0-2.144h48.085a1.072,1.072,0,0,1,0,2.144Z" transform="translate(-229.812 -109.237)" fill="#00fad9"/>
      <path id="Path_548" data-name="Path 548" d="M624.177,373.844h-26.1a1.072,1.072,0,0,1,0-2.144h26.1a1.072,1.072,0,0,1,0,2.144Z" transform="translate(-229.812 -133.916)" fill="#00fad9"/>
      <path id="Path_549" data-name="Path 549" d="M646.158,352.844H598.072a1.072,1.072,0,0,1,0-2.144h48.085a1.072,1.072,0,0,1,0,2.144Z" transform="translate(-229.812 -121.576)" fill="#00fad9"/>
      <path id="Path_550" data-name="Path 550" d="M646.158,331.844H598.072a1.072,1.072,0,0,1,0-2.144h48.085a1.072,1.072,0,0,1,0,2.144Z" transform="translate(-229.812 -109.237)" fill="#fff" opacity="0.2"/>
      <path id="Path_551" data-name="Path 551" d="M624.177,373.844h-26.1a1.072,1.072,0,0,1,0-2.144h26.1a1.072,1.072,0,0,1,0,2.144Z" transform="translate(-229.812 -133.916)" fill="#fff" opacity="0.2"/>
      <path id="Path_552" data-name="Path 552" d="M646.158,352.844H598.072a1.072,1.072,0,0,1,0-2.144h48.085a1.072,1.072,0,0,1,0,2.144Z" transform="translate(-229.812 -121.576)" fill="#fff" opacity="0.2"/>
    </g>
    <path id="Path_256" data-name="Path 256" d="M415.2,701.789H594.12" transform="translate(-137.414 -376.997)" fill="none" stroke="#b2b6bb" stroke-miterlimit="10" stroke-width="3.13"/>
    <path id="Path_257" data-name="Path 257" d="M586.615,221.311H395.89v7.844H586.615Z" transform="translate(-123.902 -40.808)" fill="#61656d"/>
    <path id="Path_265" data-name="Path 265" d="M808,449.85l5.718,12.309,1.79-4.766,4.841-1.907Z" transform="translate(-412.255 -200.716)" fill="#21252b"/>
    <path id="Path_266" data-name="Path 266" d="M846.584,475.811H843.83v2.754h2.754Z" transform="translate(-437.325 -218.881)" fill="#21252b"/>
    <g id="Group_8" data-name="Group 8" transform="translate(276.225 182.803)" opacity="0.5">
      <path id="Path_267" data-name="Path 267" d="M411.622,232.214A1.622,1.622,0,1,0,410,230.593,1.622,1.622,0,0,0,411.622,232.214Z" transform="translate(-410 -228.971)" fill="#fff" opacity="0.5"/>
      <path id="Path_268" data-name="Path 268" d="M431.222,232.214a1.622,1.622,0,1,0-1.622-1.622A1.622,1.622,0,0,0,431.222,232.214Z" transform="translate(-423.714 -228.971)" fill="#fff" opacity="0.5"/>
      <path id="Path_269" data-name="Path 269" d="M450.822,232.214a1.622,1.622,0,1,0-1.622-1.622A1.622,1.622,0,0,0,450.822,232.214Z" transform="translate(-437.428 -228.971)" fill="#fff" opacity="0.5"/>
    </g>
    <path id="Path_270" data-name="Path 270" d="M987.933,334.131H916.98v46.958h70.953Z" transform="translate(-488.508 -119.748)" fill="#21252b"/>
    <path id="Path_271" data-name="Path 271" d="M1043.953,340.67H997.04v9.03h46.913Z" transform="translate(-544.525 -124.323)" fill="#3f4249"/>
    <path id="Path_272" data-name="Path 272" d="M941.022,349.7v-9.03H916.98v45h70.956V349.7Z" transform="translate(-488.508 -124.323)" fill="#61656d"/>
    <path id="Path_273" data-name="Path 273" d="M1108.757,379.026h-3.411a.162.162,0,0,1-.117-.048.169.169,0,0,1-.048-.117.164.164,0,0,1,.048-.115.175.175,0,0,1,.117-.047h3.411a.175.175,0,0,1,.117.047.164.164,0,0,1,.048.115.169.169,0,0,1-.048.117.162.162,0,0,1-.117.048Z" transform="translate(-620.191 -150.932)" fill="#fff"/>
    <path id="Path_274" data-name="Path 274" d="M1108.757,383.356h-3.411a.162.162,0,0,1-.117-.048.169.169,0,0,1-.048-.117.164.164,0,0,1,.048-.115.175.175,0,0,1,.117-.047h3.411a.175.175,0,0,1,.117.047.164.164,0,0,1,.048.115.169.169,0,0,1-.048.117.162.162,0,0,1-.117.048Z" transform="translate(-620.191 -153.962)" fill="#fff"/>
    <path id="Path_275" data-name="Path 275" d="M1108.757,387.686h-3.411a.163.163,0,0,1-.117-.048.169.169,0,0,1-.048-.117.164.164,0,0,1,.048-.115.175.175,0,0,1,.117-.047h3.411a.175.175,0,0,1,.117.047.164.164,0,0,1,.048.115.169.169,0,0,1-.048.117A.162.162,0,0,1,1108.757,387.686Z" transform="translate(-620.191 -156.992)" fill="#fff"/>
    <path id="Path_276" data-name="Path 276" d="M1108.757,392.016h-3.411a.163.163,0,0,1-.117-.048.169.169,0,0,1-.048-.117.164.164,0,0,1,.048-.115.175.175,0,0,1,.117-.047h3.411a.175.175,0,0,1,.117.047.164.164,0,0,1,.048.115.169.169,0,0,1-.048.117.162.162,0,0,1-.117.048Z" transform="translate(-620.191 -160.021)" fill="#fff"/>
    <path id="Path_277" data-name="Path 277" d="M1108.757,396.347h-3.411a.162.162,0,0,1-.117-.049.169.169,0,0,1-.048-.117.165.165,0,0,1,.048-.115.175.175,0,0,1,.117-.047h3.411a.174.174,0,0,1,.117.047.164.164,0,0,1,.048.115.169.169,0,0,1-.048.117.162.162,0,0,1-.117.049Z" transform="translate(-620.191 -163.052)" fill="#fff"/>
    <path id="Path_278" data-name="Path 278" d="M1129.877,377.439H1123.7v6.177h6.177Z" transform="translate(-633.149 -150.051)" opacity="0.3"/>
    <path id="Path_279" data-name="Path 279" d="M1127.684,379.8h-1.234v1.234h1.234Z" transform="translate(-635.073 -151.703)" fill="#fff"/>
    <path id="Path_280" data-name="Path 280" d="M1133.074,379.8h-1.234v1.234h1.234Z" transform="translate(-638.845 -151.703)" fill="#fff"/>
    <path id="Path_281" data-name="Path 281" d="M1138.464,379.8h-1.234v1.234h1.234Z" transform="translate(-642.616 -151.703)" fill="#fff"/>
    <path id="Path_282" data-name="Path 282" d="M1127.684,385.189h-1.234v1.234h1.234Z" transform="translate(-635.073 -155.473)" fill="#fff"/>
    <path id="Path_283" data-name="Path 283" d="M1133.074,385.189h-1.234v1.234h1.234Z" transform="translate(-638.845 -155.473)" fill="#fff"/>
    <path id="Path_284" data-name="Path 284" d="M1138.464,385.189h-1.234v1.234h1.234Z" transform="translate(-642.616 -155.473)" fill="#fff"/>
    <path id="Path_285" data-name="Path 285" d="M1127.684,390.58h-1.234v1.234h1.234Z" transform="translate(-635.073 -159.245)" fill="#fff"/>
    <path id="Path_286" data-name="Path 286" d="M1133.074,390.58h-1.234v1.234h1.234Z" transform="translate(-638.845 -159.245)" fill="#fff"/>
    <path id="Path_287" data-name="Path 287" d="M1138.464,390.58h-1.234v1.234h1.234Z" transform="translate(-642.616 -159.245)" fill="#fff"/>
    <path id="Path_288" data-name="Path 288" d="M1058.166,422.82h-8.276v7.427h8.276Z" transform="translate(-581.504 -181.804)"/>
    <path id="Path_289" data-name="Path 289" d="M968.726,422.82H960.45v7.427h8.276Z" transform="translate(-518.924 -181.804)"/>
    <path id="Path_290" data-name="Path 290" d="M938.916,422.82H930.64v7.427h8.276Z" transform="translate(-498.066 -181.804)"/>
    <path id="Path_291" data-name="Path 291" d="M1028.356,422.82h-8.276v7.427h8.276Z" transform="translate(-560.646 -181.804)"/>
    <path id="Path_292" data-name="Path 292" d="M998.536,422.82H990.26v7.427h8.276Z" transform="translate(-539.782 -181.804)"/>
    <path id="Path_293" data-name="Path 293" d="M1058.166,422.82h-8.276v7.427h8.276Z" transform="translate(-581.504 -181.804)"/>
    <path id="Path_294" data-name="Path 294" d="M968.726,422.82H960.45v7.427h8.276Z" transform="translate(-518.924 -181.804)" fill="#fff" opacity="0.6"/>
    <path id="Path_295" data-name="Path 295" d="M938.916,422.82H930.64v7.427h8.276Z" transform="translate(-498.066 -181.804)" fill="#fff" opacity="0.8"/>
    <path id="Path_296" data-name="Path 296" d="M1028.356,422.82h-8.276v7.427h8.276Z" transform="translate(-560.646 -181.804)" fill="#fff" opacity="0.2"/>
    <path id="Path_297" data-name="Path 297" d="M998.536,422.82H990.26v7.427h8.276Z" transform="translate(-539.782 -181.804)" fill="#fff" opacity="0.4"/>
    <path id="Path_298" data-name="Path 298" d="M1088.362,449.25h-8.222v7.868h8.222Z" transform="translate(-602.67 -200.297)" fill="#00fad9"/>
    <path id="Path_299" data-name="Path 299" d="M1088.362,449.25h-8.222v7.868h8.222Z" transform="translate(-602.67 -200.297)" opacity="0.5"/>
    <path id="Path_300" data-name="Path 300" d="M1058.452,449.25h-8.222v7.868h8.222Z" transform="translate(-581.742 -200.297)" fill="#00fad9"/>
    <path id="Path_301" data-name="Path 301" d="M1058.452,449.25h-8.222v7.868h8.222Z" transform="translate(-581.742 -200.297)" opacity="0.2"/>
    <path id="Path_302" data-name="Path 302" d="M1028.562,449.25h-8.222v7.868h8.222Z" transform="translate(-560.828 -200.297)" fill="#00fad9"/>
    <path id="Path_303" data-name="Path 303" d="M998.672,449.25H990.45v7.868h8.222Z" transform="translate(-539.914 -200.297)" fill="#00fad9"/>
    <path id="Path_304" data-name="Path 304" d="M998.672,449.25H990.45v7.868h8.222Z" transform="translate(-539.914 -200.297)" fill="#00fad9"/>
    <path id="Path_305" data-name="Path 305" d="M968.782,449.25H960.56v7.868h8.222Z" transform="translate(-519.001 -200.297)" fill="#00fad9"/>
    <path id="Path_306" data-name="Path 306" d="M968.782,449.25H960.56v7.868h8.222Z" transform="translate(-519.001 -200.297)" fill="#fff" opacity="0.6"/>
    <path id="Path_307" data-name="Path 307" d="M938.892,449.25H930.67v7.868h8.222Z" transform="translate(-498.087 -200.297)" fill="#fff"/>
    <path id="Path_308" data-name="Path 308" d="M1118.112,449.25h-8.222v7.868h8.222Z" transform="translate(-623.486 -200.297)" fill="#00fad9"/>
    <path id="Path_309" data-name="Path 309" d="M1118.112,449.25h-8.222v7.868h8.222Z" transform="translate(-623.486 -200.297)" opacity="0.8"/>
    <path id="Path_310" data-name="Path 310" d="M944.019,389.895H937.16V383.27h6.859Zm-5.55-1.3h4.246v-4.015h-4.246Z" transform="translate(-502.628 -154.13)"/>
    <path id="Path_311" data-name="Path 311" d="M936.276,375.48H930.72V380.8h5.556Z" transform="translate(-498.121 -148.68)" fill="#5ae4a7"/>
    <path id="Path_312" data-name="Path 312" d="M936.276,375.48H930.72V380.8h5.556Z" transform="translate(-498.121 -148.68)" fill="#00fad9"/>
    <path id="Path_313" data-name="Path 313" d="M933.63,356.359h14.33" transform="translate(-500.158 -135.301)" fill="none" stroke="#fff" stroke-linecap="round" stroke-linejoin="round" stroke-width="4.36"/>
    <path id="Path_314" data-name="Path 314" d="M1110.42,347.859v.477l.982.826-.982.829v.478l1.55-1.306Z" transform="translate(-623.857 -129.354)" fill="#fff"/>
    <path id="Path_315" data-name="Path 315" d="M1116.07,347.859v.477l.982.826-.982.829v.478l1.55-1.306Z" transform="translate(-627.81 -129.354)" fill="#fff"/>
    <path id="Path_316" data-name="Path 316" d="M1127.382,349.51a.161.161,0,0,1-.063-.011.151.151,0,0,1-.054-.035.187.187,0,0,1-.036-.053.149.149,0,0,1-.012-.063v-4.5a.184.184,0,0,1,.006-.07.162.162,0,0,1,.033-.061.167.167,0,0,1,.057-.041.16.16,0,0,1,.066-.015.164.164,0,0,1,.069.015.158.158,0,0,1,.09.1.184.184,0,0,1,.006.07v4.5a.164.164,0,0,1-.048.115A.162.162,0,0,1,1127.382,349.51Z" transform="translate(-635.609 -127.112)" fill="#fff"/>
    <path id="Path_317" data-name="Path 317" d="M1137.457,349.606h-3.534a.164.164,0,0,1-.114-.049.168.168,0,0,1-.048-.116.165.165,0,0,1,.048-.115.162.162,0,0,1,.114-.047h3.534a.162.162,0,0,1,.114.047.165.165,0,0,1,.048.115.167.167,0,0,1-.048.116.164.164,0,0,1-.114.049Z" transform="translate(-640.188 -130.347)" fill="#fff"/>
    <path id="Path_318" data-name="Path 318" d="M1137.457,352.237h-3.534a.162.162,0,0,1-.114-.047.165.165,0,0,1-.048-.115.167.167,0,0,1,.162-.165h3.534a.164.164,0,0,1,.114.28.162.162,0,0,1-.114.047Z" transform="translate(-640.188 -132.188)" fill="#fff"/>
    <path id="Path_319" data-name="Path 319" d="M1137.457,354.837h-3.534a.164.164,0,0,1-.114-.28.162.162,0,0,1,.114-.047h3.534a.162.162,0,0,1,.114.047.164.164,0,0,1,.048.115.167.167,0,0,1-.162.165Z" transform="translate(-640.188 -134.007)" fill="#fff"/>
    <path id="Path_320" data-name="Path 320" d="M1137.5,357.446h-3.534a.17.17,0,0,1-.1-.055.162.162,0,0,1,0-.217.169.169,0,0,1,.1-.055h3.534a.169.169,0,0,1,.1.055.162.162,0,0,1,0,.217.169.169,0,0,1-.1.055Z" transform="translate(-640.23 -135.833)" fill="#fff"/>
    <path id="Path_321" data-name="Path 321" d="M289.763,586.039H218.81V633h70.953Z" transform="translate(0 -296.007)" fill="#21252b"/>
    <path id="Path_322" data-name="Path 322" d="M345.773,592.58H298.86v9.03h46.913Z" transform="translate(-56.011 -300.584)" fill="#3f4249"/>
    <path id="Path_323" data-name="Path 323" d="M242.849,601.61v-9.03H218.81v45h70.953V601.61Z" transform="translate(0 -300.584)" fill="#61656d"/>
    <path id="Path_324" data-name="Path 324" d="M245.862,641.8H239V635.18h6.865Zm-5.556-1.309h4.246v-4.006h-4.246Z" transform="translate(-14.127 -330.391)"/>
    <path id="Path_325" data-name="Path 325" d="M238.106,627.391H232.55v5.315h5.556Z" transform="translate(-9.614 -324.941)" fill="#00fad9"/>
    <path id="Path_326" data-name="Path 326" d="M238.106,627.391H232.55v5.315h5.556Z" transform="translate(-9.614 -324.941)" fill="#00fad9" opacity="0.3"/>
    <path id="Path_327" data-name="Path 327" d="M248.265,607.4h-14.33a.655.655,0,1,1,0-1.309h14.33a.655.655,0,1,1,0,1.309Z" transform="translate(-10.125 -310.037)" fill="#fff"/>
    <path id="Path_328" data-name="Path 328" d="M412.25,599.77v.477l.982.829-.982.826v.477l1.55-1.3Z" transform="translate(-135.349 -305.615)" fill="#fff"/>
    <path id="Path_329" data-name="Path 329" d="M417.9,599.77v.477l.982.829-.982.826v.477l1.55-1.3Z" transform="translate(-139.303 -305.615)" fill="#fff"/>
    <path id="Path_330" data-name="Path 330" d="M429.212,601.473a.162.162,0,0,1-.162-.162v-4.5a.164.164,0,1,1,.327,0v4.5a.166.166,0,0,1-.165.162Z" transform="translate(-147.104 -303.426)" fill="#fff"/>
    <path id="Path_331" data-name="Path 331" d="M439.277,601.517h-3.532a.164.164,0,1,1,0-.327h3.532a.156.156,0,0,1,.063.011.161.161,0,0,1,.053.035.156.156,0,0,1,.036.053.16.16,0,0,1,.013.063.166.166,0,0,1-.165.165Z" transform="translate(-151.673 -306.608)" fill="#fff"/>
    <path id="Path_332" data-name="Path 332" d="M439.277,604.128h-3.532a.164.164,0,1,1,0-.327h3.532a.165.165,0,0,1,.165.165.161.161,0,0,1-.049.116.16.16,0,0,1-.117.047Z" transform="translate(-151.673 -308.435)" fill="#fff"/>
    <path id="Path_333" data-name="Path 333" d="M439.277,606.747h-3.532a.164.164,0,1,1,0-.327h3.532a.167.167,0,0,1,.063.011.16.16,0,0,1,.053.035.161.161,0,0,1,.049.116.165.165,0,0,1-.165.165Z" transform="translate(-151.673 -310.268)" fill="#fff"/>
    <path id="Path_334" data-name="Path 334" d="M439.225,609.354h-3.532a.161.161,0,0,1-.07-.005.164.164,0,0,1-.061-.034.171.171,0,0,1-.042-.056.165.165,0,0,1,.042-.193.167.167,0,0,1,.131-.039h3.532a.167.167,0,0,1,.131.039.165.165,0,0,1,.042.193.17.17,0,0,1-.042.056.164.164,0,0,1-.061.034A.161.161,0,0,1,439.225,609.354Z" transform="translate(-151.622 -312.091)" fill="#fff"/>
    <path id="Path_335" data-name="Path 335" d="M318.852,641.869H289.69v1.964h29.162Z" transform="translate(-49.595 -335.072)" fill="#b2b6bb"/>
    <path id="Path_336" data-name="Path 336" d="M289.484,647.49l-1.234,1.462v1.1H290.8v-1.1Z" transform="translate(-48.587 -339.005)" fill="#868a91"/>
    <path id="Path_337" data-name="Path 337" d="M318.852,669.09H289.69v1.964h29.162Z" transform="translate(-49.595 -354.118)" fill="#00fad9"/>
    <path id="Path_338" data-name="Path 338" d="M378.711,674.721l-1.231,1.462v1.1h2.547v-1.1Z" transform="translate(-111.021 -358.058)" fill="#868a91"/>
    <path id="Path_339" data-name="Path 339" d="M318.852,696.32H289.69v1.964h29.162Z" transform="translate(-49.595 -373.171)" fill="#fff"/>
    <path id="Path_340" data-name="Path 340" d="M287.471,701.939,286.24,703.4v1.1h2.547v-1.1Z" transform="translate(-47.181 -377.102)" fill="#868a91"/>
    <path id="Path_341" data-name="Path 341" d="M396.6,718.51H385.85v4.541H396.6Z" transform="translate(-116.877 -388.697)" opacity="0.3"/>
    <path id="Path_342" data-name="Path 342" d="M402.171,692.02H393.39v4.541h8.781Z" transform="translate(-122.153 -370.162)" opacity="0.3"/>
    <path id="Path_343" data-name="Path 343" d="M402.171,664.8H393.39v4.541h8.781Z" transform="translate(-122.153 -351.117)" opacity="0.3"/>
    <path id="Path_344" data-name="Path 344" d="M402.171,637.58H393.39v4.541h8.781Z" transform="translate(-122.153 -332.071)" opacity="0.3"/>
    <path id="Path_370" data-name="Path 370" d="M1115.244,756.165l9.1,15.958" transform="translate(-620.75 -393.79)" fill="#00fad9"/>
    <path id="Path_391" data-name="Path 391" d="M588.813,981H278v6.006H588.813Z" transform="translate(-41.415 -572.361)" fill="#868a91"/>
    <path id="Path_392" data-name="Path 392" d="M1061.109,981H953v6.006h108.109Z" transform="translate(-513.711 -572.361)" opacity="0.2"/>
    <path id="Path_393" data-name="Path 393" d="M959.878,974h86.011a1.1,1.1,0,0,1,.619.176.524.524,0,0,1,.259.425v1.5H959v-1.5a.527.527,0,0,1,.257-.425A1.114,1.114,0,0,1,959.878,974Z" transform="translate(-517.909 -567.463)" fill="#21252b"/>
    <g id="Group_11" data-name="Group 11" transform="translate(441.091 407.438)" opacity="0.3">
      <path id="Path_394" data-name="Path 394" d="M1019.061,977H959v.3h60.061Z" transform="translate(-959 -977)" fill="#fff" opacity="0.3"/>
    </g>
    <path id="Path_395" data-name="Path 395" d="M764.673,969H692v3.6h72.673Z" transform="translate(-331.09 -563.964)" fill="#61656d"/>
    <path id="Path_396" data-name="Path 396" d="M865.262,969h-29.5v3.6h29.5Z" transform="translate(-431.678 -563.964)" opacity="0.4"/>
    <path id="Path_397" data-name="Path 397" d="M494.743,801.126H578.8a.943.943,0,0,0,.943-.943V745.8a.943.943,0,0,0-.943-.943H494.743a.943.943,0,0,0-.943.943v54.379A.943.943,0,0,0,494.743,801.126Z" transform="translate(-192.41 -407.135)" fill="#3f4249"/>
    <path id="Path_398" data-name="Path 398" d="M494.743,801.126H578.8a.943.943,0,0,0,.943-.943V745.8a.943.943,0,0,0-.943-.943H494.743a.943.943,0,0,0-.943.943v54.379A.943.943,0,0,0,494.743,801.126Z" transform="translate(-192.41 -407.135)" opacity="0.3"/>
    <path id="Path_399" data-name="Path 399" d="M487.363,801.126h84.061a.943.943,0,0,0,.943-.943V745.8a.943.943,0,0,0-.943-.943H487.363a.943.943,0,0,0-.943.943v54.379A.943.943,0,0,0,487.363,801.126Z" transform="translate(-187.246 -407.135)" fill="#3f4249"/>
    <path id="Path_400" data-name="Path 400" d="M598,894.193h16.279a.943.943,0,0,0,.943-.943V857.923a.943.943,0,0,0-.943-.943H598a.943.943,0,0,0-.943.943v35.328A.943.943,0,0,0,598,894.193Z" transform="translate(-264.66 -485.584)" fill="#868a91"/>
    <path id="Path_401" data-name="Path 401" d="M598,894.193h16.279a.943.943,0,0,0,.943-.943V857.923a.943.943,0,0,0-.943-.943H598a.943.943,0,0,0-.943.943v35.328A.943.943,0,0,0,598,894.193Z" transform="translate(-264.66 -485.584)" opacity="0.2"/>
    <path id="Path_402" data-name="Path 402" d="M554.282,966.15h41.946a1.2,1.2,0,0,1,1.063.658l1.886,3.772H551.33l1.886-3.772a1.2,1.2,0,0,1,1.066-.658Z" transform="translate(-232.663 -561.97)" fill="#3f4249"/>
    <path id="Path_403" data-name="Path 403" d="M554.282,966.15h41.946a1.2,1.2,0,0,1,1.063.658l1.886,3.772H551.33l1.886-3.772a1.2,1.2,0,0,1,1.066-.658Z" transform="translate(-232.663 -561.97)" opacity="0.3"/>
    <path id="Path_404" data-name="Path 404" d="M598,894.193h14.063a.943.943,0,0,0,.943-.943V857.923a.943.943,0,0,0-.943-.943H598a.943.943,0,0,0-.943.943v35.328A.943.943,0,0,0,598,894.193Z" transform="translate(-264.66 -485.584)" fill="#868a91"/>
    <path id="Path_405" data-name="Path 405" d="M546.937,966.15h41.946a1.2,1.2,0,0,1,1.063.658l1.889,3.772H544l1.886-3.772a1.2,1.2,0,0,1,1.051-.658Z" transform="translate(-227.535 -561.97)" fill="#3f4249"/>
    <path id="Path_406" data-name="Path 406" d="M325.636,976.949H305.66v1.36h19.976Z" transform="translate(-60.769 -569.526)" fill="#afb3b8"/>
    <path id="Path_407" data-name="Path 407" d="M325.636,954.01H305.66v8.252h19.976Z" transform="translate(-60.769 -553.476)" fill="#d7dadc"/>
    <path id="Path_408" data-name="Path 408" d="M325.629,954.01H305.65v1.36h19.979v6.889h27.679V954.01Z" transform="translate(-60.762 -553.476)" fill="#afb3b8"/>
    <path id="Path_410" data-name="Path 410" d="M399.292,963.551H387.61V966.5h11.682Z" transform="translate(-118.109 -560.152)" fill="#d7dadc"/>
    <path id="Path_411" data-name="Path 411" d="M436.22,962.058a2.438,2.438,0,1,1,.713,1.723,2.437,2.437,0,0,1-.713-1.723Zm.835,0a1.6,1.6,0,1,0,.47-1.131,1.6,1.6,0,0,0-.47,1.131" transform="translate(-152.121 -557.401)" fill="#d7dadc"/>
    <path id="Path_412" data-name="Path 412" d="M346.177,931H330.09v6.91h16.087Z" transform="translate(-77.862 -537.376)" fill="#d7dadc"/>
    <path id="Path_413" data-name="Path 413" d="M330.09,931h38.379v6.91H346.177V932.1H330.09Z" transform="translate(-77.862 -537.376)" fill="#afb3b8"/>
    <path id="Path_414" data-name="Path 414" d="M346.5,949.471H330.09v1.36H346.5Z" transform="translate(-77.862 -550.3)" fill="#afb3b8"/>
    <path id="Path_416" data-name="Path 416" d="M405.509,938.689H396.1v2.378h9.408Z" transform="translate(-124.049 -542.756)" fill="#d7dadc"/>
    <path id="Path_417" data-name="Path 417" d="M435.25,937.49a1.964,1.964,0,1,1,.575,1.386,1.963,1.963,0,0,1-.575-1.386Zm.67,0a1.289,1.289,0,1,0,.1-.495,1.29,1.29,0,0,0-.1.495" transform="translate(-151.442 -540.545)" fill="#d7dadc"/>
    <g id="Group_13" data-name="Group 13" transform="translate(252.228 400.096)" opacity="0.15">
      <g id="Group_12" data-name="Group 12" transform="translate(0 0)" opacity="0.15">
        <path id="Path_418" data-name="Path 418" d="M368.469,952.551H330.09v.438h38.379Z" transform="translate(-330.09 -952.551)" opacity="0.15"/>
      </g>
    </g>
    <g id="Group_21" data-name="Group 21" transform="translate(-4 44)">
      <path id="css3_1_" data-name="css3 (1)" d="M1.5,0h21L20.59,21.563,11.977,24,3.412,21.562ZM18.59,4.413l-13.18,0,.213,2.622,10.125,0L15.493,9.75H8.853l.24,2.573h6.182l-.366,3.523-2.91.8-2.956-.81-.188-2.11H6.245l.29,3.855L12,19.288l5.373-1.53L18.59,4.414Z" transform="translate(474.31 272.988)" fill="#00edce"/>
      <path id="html5_1_" data-name="html5 (1)" d="M1.5,0h21L20.59,21.563,11.977,24,3.413,21.562ZM8.531,9.75,8.3,7.032l10.059,0,.23-2.622-13.176,0,.7,8.01h9.126l-.326,3.426-2.91.8-2.955-.81-.188-2.11H6.248l.33,4.171L12,19.351l5.379-1.443.744-8.157H8.531Z" transform="translate(474.31 239.988)" fill="#00edce"/>
      <path id="javascript_1_" data-name="javascript (1)" d="M0,0H24V24H0ZM22.034,18.276c-.175-1.095-.888-2.015-3-2.873-.736-.345-1.554-.585-1.8-1.14a1.181,1.181,0,0,1-.046-.7A1.146,1.146,0,0,1,18.7,12.9a1.627,1.627,0,0,1,.976.9c1.034-.676,1.034-.676,1.755-1.125a4.127,4.127,0,0,0-.586-.78,3.359,3.359,0,0,0-2.834-1.034l-.7.089a3.224,3.224,0,0,0-1.71,1.005,3.137,3.137,0,0,0,.569,4.471c1.365,1.02,3.361,1.244,3.616,2.2.24,1.17-.87,1.545-1.966,1.41A2.633,2.633,0,0,1,16.063,18.7l-1.83,1.051a4.044,4.044,0,0,0,.81,1.109c1.74,1.756,6.09,1.666,6.871-1a3.385,3.385,0,0,0,.074-1.65l.046.067Zm-8.983-7.245H10.8c0,1.938-.009,3.864-.009,5.8a9.468,9.468,0,0,1-.138,2.711c-.33.689-1.18.6-1.566.48a1.929,1.929,0,0,1-.83-.855.858.858,0,0,0-.127-.2L6.308,20.1a3.537,3.537,0,0,0,1.324,1.517,4.4,4.4,0,0,0,3.207.405,2.809,2.809,0,0,0,1.811-1.411,6.931,6.931,0,0,0,.4-3.346c.012-2.054,0-4.109,0-6.179l0-.056Z" transform="translate(474.81 305.988)" fill="#00edce"/>
      <path id="adobexd_1_" data-name="adobexd (1)" d="M18.835.3H5.165A5.165,5.165,0,0,0,0,5.465v13.07A5.165,5.165,0,0,0,5.165,23.7h13.67A5.165,5.165,0,0,0,24,18.535V5.465A5.165,5.165,0,0,0,18.835.3ZM12.729,16.791H10.442c-.16,0-.274-.006-.338-.113q-.323-.629-.644-1.248-.332-.637-.684-1.264-.366-.648-.717-1.3H8.043q-.325.649-.668,1.288t-.684,1.28q-.337.637-.691,1.264c-.044.1-.119.107-.227.107h-2.2c-.043,0-.067.017-.072-.026a.166.166,0,0,1,.024-.113l3.107-5.1L3.6,6.438c-.033-.043-.038-.078-.016-.107a.115.115,0,0,1,.1-.04h2.27a.36.36,0,0,1,.145.024.292.292,0,0,1,.1.089q.29.645.644,1.288t.716,1.272q.362.628.668,1.272h.016q.32-.66.652-1.288t.676-1.264q.346-.638.668-1.264a.246.246,0,0,1,.064-.106.239.239,0,0,1,.129-.024h2.109a.092.092,0,0,1,.081.161v0L9.621,11.4l3.2,5.249a.165.165,0,0,1,.016.121c-.01.036-.047.012-.112.023Zm7.681-.42a8.02,8.02,0,0,1-1.626.483A8.63,8.63,0,0,1,17.237,17a5.006,5.006,0,0,1-2.149-.45,3.421,3.421,0,0,1-1.506-1.361,4.348,4.348,0,0,1-.548-2.278,4.2,4.2,0,0,1,.548-2.109,4.018,4.018,0,0,1,1.6-1.545,5.139,5.139,0,0,1,2.737-.572q.129.008.306.024V5.536c0-.075.032-.113.1-.113h2.028a.086.086,0,0,1,.1.073.1.1,0,0,1,0,.024v9.517c0,.183.008.381.024.6s.03.407.04.579a.163.163,0,0,1-.1.159Zm-2.457-5.812a1.7,1.7,0,0,1,.266.048V15a1.634,1.634,0,0,1-.354.064q-.209.017-.419.016a2.656,2.656,0,0,1-.83-.129,1.714,1.714,0,0,1-.676-.4,1.973,1.973,0,0,1-.451-.708,2.83,2.83,0,0,1-.169-1.031A2.073,2.073,0,0,1,16.495,10.8a2.486,2.486,0,0,1,1.127-.258c.111,0,.221.007.331.018Z" transform="translate(474.81 338.688)" fill="#00edce"/>
    </g>
  </g>
</svg>
