<svg xmlns="http://www.w3.org/2000/svg" xmlns:xlink="http://www.w3.org/1999/xlink" width="191.748" height="96.673" viewBox="0 0 191.748 96.673">
  <defs>
    <clipPath id="clip-path">
      <path id="Path_7" data-name="Path 7" d="M1112.6,314.961l2.753-.283V309.97Z" transform="translate(-1112.601 -309.97)" fill="none"/>
    </clipPath>
  </defs>
  <g id="nav-header" transform="translate(-29.999 -39)">
    <path id="Path_559" data-name="Path 559" d="M36.833,998.091s-.722,68.61,85.943,92.443S227.5,998.091,227.5,998.091Z" transform="translate(-6.332 -958.591)" fill="none" stroke="#e8edff" stroke-width="1"/>
    <g id="TN-logo" transform="translate(107 57)">
      <g id="Path_4" data-name="Path 4" transform="translate(2.562 6.698)">
        <path id="Path_1" data-name="Path 1" d="M17.852,33.2a15.466,15.466,0,0,1-3.094-.313A15.351,15.351,0,0,1,2.812,20.944a15.5,15.5,0,0,1,0-6.189A15.349,15.349,0,0,1,14.757,2.811a15.5,15.5,0,0,1,6.189,0A15.351,15.351,0,0,1,32.891,14.757a15.5,15.5,0,0,1,0,6.189A15.351,15.351,0,0,1,20.945,32.891,15.465,15.465,0,0,1,17.852,33.2Z" transform="translate(-2.5 -2.225)" fill="rgba(236,32,32,0)"/>
        <path id="Path_2" data-name="Path 2" d="M15.468.553a15.189,15.189,0,0,0-3.044.305A15.065,15.065,0,0,0,.7,12.583a15.227,15.227,0,0,0,0,6.08A15.062,15.062,0,0,0,12.424,30.4a15.229,15.229,0,0,0,6.08,0A15.078,15.078,0,0,0,30.237,18.663a15.229,15.229,0,0,0,0-6.08A15.082,15.082,0,0,0,18.5.858,15.189,15.189,0,0,0,15.468.553m0-.553C24.1,0,33.632,7.571,33.632,16.2S24.1,31.255,15.468,31.255A15.165,15.165,0,0,1,.393,15.628,15.165,15.165,0,0,1,15.468,0Z" transform="translate(-0.116)" fill="#f5f7fe"/>
      </g>
      <g id="Path_3" data-name="Path 3" transform="translate(0 21.538) rotate(-20.972)">
        <path id="Path_3-2" data-name="Path 3" d="M3.352,13.573a1.979,1.979,0,0,1-1.291-.525A4.524,4.524,0,0,1,.99,11.6,9.049,9.049,0,0,1,.267,9.44,12.9,12.9,0,0,1,0,6.787,12.9,12.9,0,0,1,.267,4.136,9.049,9.049,0,0,1,.99,1.979,4.524,4.524,0,0,1,2.061.525,1.979,1.979,0,0,1,3.352,0,1.979,1.979,0,0,1,4.643.525a4.524,4.524,0,0,1,1.07,1.455,9.049,9.049,0,0,1,.725,2.162,12.9,12.9,0,0,1,.267,2.645,12.9,12.9,0,0,1-.267,2.652A9.049,9.049,0,0,1,5.714,11.6,4.524,4.524,0,0,1,4.645,13.05a1.979,1.979,0,0,1-1.292.523Z" transform="translate(0.055 0.055)" fill="none" stroke="#f5f7fe" stroke-width="0.25"/>
        <path id="Path_4-2" data-name="Path 4" d="M3.407.11A1.929,1.929,0,0,0,2.153.622,4.469,4.469,0,0,0,1.1,2.053,8.988,8.988,0,0,0,.376,4.2,12.845,12.845,0,0,0,.11,6.843,12.845,12.845,0,0,0,.376,9.484,8.988,8.988,0,0,0,1.1,11.633a4.469,4.469,0,0,0,1.056,1.431,1.929,1.929,0,0,0,1.254.509,1.929,1.929,0,0,0,1.258-.509,4.469,4.469,0,0,0,1.056-1.432,8.988,8.988,0,0,0,.721-2.149,12.845,12.845,0,0,0,.263-2.64A12.845,12.845,0,0,0,6.44,4.2a8.988,8.988,0,0,0-.721-2.149A4.469,4.469,0,0,0,4.666.622,1.929,1.929,0,0,0,3.407.11m0-.11C5.289,0,6.815,3.064,6.815,6.843s-1.524,6.843-3.407,6.843S0,10.622,0,6.843,1.526,0,3.407,0Z" transform="translate(0 0)" fill="none" stroke="#f5f7fe" stroke-width="0.25"/>
      </g>
      <g id="Path_6" data-name="Path 6" transform="translate(25.537 16.228) rotate(30)">
        <path id="Path_5" data-name="Path 5" d="M4.915,18.334a3.051,3.051,0,0,1-1.9-.707,5.147,5.147,0,0,1-.836-.841,7.5,7.5,0,0,1-.73-1.118A11.58,11.58,0,0,1,.389,12.75,16.128,16.128,0,0,1,0,9.166,16.128,16.128,0,0,1,.389,5.589a11.578,11.578,0,0,1,1.06-2.917,7.506,7.506,0,0,1,.73-1.117A5.144,5.144,0,0,1,3.015.707,3.051,3.051,0,0,1,4.915,0a3.051,3.051,0,0,1,1.9.707,5.144,5.144,0,0,1,.836.841,7.506,7.506,0,0,1,.73,1.118,11.578,11.578,0,0,1,1.06,2.917A16.128,16.128,0,0,1,9.829,9.16a16.128,16.128,0,0,1-.389,3.577,11.58,11.58,0,0,1-1.06,2.917,7.5,7.5,0,0,1-.73,1.118,5.147,5.147,0,0,1-.836.841A3.051,3.051,0,0,1,4.915,18.334Z" transform="translate(0.055 0.061)" fill="none" stroke="#f5f7fe" stroke-width="0.5"/>
        <path id="Path_6-2" data-name="Path 6" d="M4.97.116A3,3,0,0,0,3.1.823a5.09,5.09,0,0,0-.826.833,7.451,7.451,0,0,0-.725,1.11A11.525,11.525,0,0,0,.5,5.661,16.072,16.072,0,0,0,.11,9.227,16.073,16.073,0,0,0,.5,12.793,11.524,11.524,0,0,0,1.555,15.7a7.454,7.454,0,0,0,.725,1.11,5.09,5.09,0,0,0,.826.833,3,3,0,0,0,1.866.707,3,3,0,0,0,1.866-.707,5.09,5.09,0,0,0,.826-.833A7.454,7.454,0,0,0,8.39,15.7a11.524,11.524,0,0,0,1.055-2.9,16.073,16.073,0,0,0,.387-3.564,16.073,16.073,0,0,0-.39-3.57,11.525,11.525,0,0,0-1.055-2.9,7.451,7.451,0,0,0-.725-1.11,5.09,5.09,0,0,0-.826-.83A3,3,0,0,0,4.97.11m0-.11C7.714.006,9.94,4.134,9.94,9.227s-2.225,9.221-4.97,9.221S0,14.321,0,9.227,2.225.006,4.97.006Z" transform="translate(0)" fill="none" stroke="#f5f7fe" stroke-width="0.25"/>
      </g>
      <g id="Mask_Group_1" data-name="Mask Group 1" transform="translate(15.205 2.013)" clip-path="url(#clip-path)">
        <path id="Path_2-2" data-name="Path 2" d="M5.135,0,0,9.278H5.135Z" transform="translate(-2.426 0.045)" fill="#f5f7fe"/>
      </g>
      <path id="Path_8" data-name="Path 8" d="M1184.967,292.444l-4.427-9.713v7.494Z" transform="translate(-1157.938 -282.73)" fill="#f5f7fe"/>
    </g>
  </g>
</svg>
